<svg width="60" height="60" viewBox="0 0 60 60" fill="none" xmlns="http://www.w3.org/2000/svg">
<circle cx="30" cy="30" r="30" fill="#F3AE3E"/>
<path d="M29.4113 17.4806L30.6034 15.4151C30.6034 15.4151 31.1995 14.3824 33.2649 15.5746C35.3303 16.7668 34.7342 17.7995 34.7342 17.7995L33.5421 19.8649" stroke="white" stroke-width="1.5" stroke-linecap="round" stroke-linejoin="round"/>
<path d="M31.4437 23.4979L33.5405 19.8648L29.4111 17.4805L27.0656 21.5413" stroke="white" stroke-width="1.5" stroke-linecap="round" stroke-linejoin="round"/>
<path d="M23.525 37.2129L22.2583 39.4065" stroke="white" stroke-width="1.5" stroke-linecap="round" stroke-linejoin="round"/>
<path d="M26.6216 31.8491L31.4439 23.498" stroke="white" stroke-width="1.5" stroke-linecap="round" stroke-linejoin="round"/>
<path d="M16.2974 40.1934L18.0871 37.0938" stroke="white" stroke-width="1.5" stroke-linecap="round" stroke-linejoin="round"/>
<path d="M27.0656 21.541L22.2582 29.8697L21.1152 31.8487" stroke="white" stroke-width="1.5" stroke-linecap="round" stroke-linejoin="round"/>
<path d="M20.4268 42.5774L22.2582 39.4062" stroke="white" stroke-width="1.5" stroke-linecap="round" stroke-linejoin="round"/>
<path d="M16.2974 40.1934L20.4267 42.5777" stroke="white" stroke-width="1.5" stroke-linecap="round" stroke-linejoin="round"/>
<path d="M16.2974 40.1934L16.2765 44.9992L20.4267 42.5777" stroke="white" stroke-width="1.5" stroke-linecap="round" stroke-linejoin="round"/>
<path d="M32.3482 21.93L28.7345 19.8438" stroke="white" stroke-width="1.5" stroke-linecap="round" stroke-linejoin="round"/>
<path d="M18.0873 37.0938C18.7206 37.21 19.3942 37.213 19.874 37.213H20.7711" stroke="white" stroke-width="1.5" stroke-linecap="round" stroke-linejoin="round"/>
<path d="M21.1152 31.8496H23.8691" stroke="white" stroke-width="1.5" stroke-linecap="round" stroke-linejoin="round"/>
<path d="M20.771 37.2129H22.2582" stroke="white" stroke-width="1.5" stroke-linecap="round" stroke-linejoin="round"/>
<path d="M23.8691 31.8484H26.623C26.623 31.8484 28.8166 30.6562 31.2009 30.6562" stroke="white" stroke-width="1.5" stroke-linecap="round" stroke-linejoin="round"/>
<path d="M18.0871 37.0951C17.1483 36.9222 16.2974 36.4931 16.2974 35.4261C16.2974 33.0418 19.2778 31.8496 21.066 31.8496H21.1152" stroke="white" stroke-width="1.5" stroke-linecap="round" stroke-linejoin="round"/>
<path d="M23.9318 37.2129H25.8347" stroke="white" stroke-width="1.5" stroke-linecap="round" stroke-linejoin="round"/>
<path d="M29.3485 38.0802C27.8046 37.727 27.0268 37.2129 27.0268 37.2129H25.8346" stroke="white" stroke-width="1.5" stroke-linecap="round" stroke-linejoin="round"/>
<path d="M23.5249 37.2129H23.9317" stroke="white" stroke-width="1.5" stroke-linecap="round" stroke-linejoin="round"/>
<path d="M23.525 37.2129H22.2583" stroke="white" stroke-width="1.5" stroke-linecap="round" stroke-linejoin="round"/>
<path d="M29.3486 38.0802C30.1548 38.265 31.1652 38.405 32.3916 38.405C35.9681 38.405 37.7563 37.2129 37.7563 37.2129H38.339" stroke="white" stroke-width="1.5" stroke-linecap="round" stroke-linejoin="round"/>
<path d="M31.7954 22.9082C35.1767 24.7844 37.7562 26.4847 37.7562 26.4847H41.3327V39.5984H47.8895" stroke="white" stroke-width="1.5" stroke-linecap="round" stroke-linejoin="round"/>
<path d="M27.2325 21.2533C26.6215 21.0909 25.5441 20.8867 24.808 20.8867C22.829 20.8867 21.9036 22.2845 20.461 23.9893C17.2899 27.7327 14.1828 34.0764 13.1129 36.3624C12.8625 36.8974 13.0399 37.5337 13.5331 37.8586C14.545 38.5262 16.287 39.2191 17.4911 37.2148" stroke="white" stroke-width="1.5" stroke-linecap="round" stroke-linejoin="round"/>
<path d="M25.8348 39.1172V39.5985C25.8348 41.041 24.5249 41.3927 23.4907 41.4449C22.8171 41.4791 22.2583 40.9278 22.2583 40.2527V39.4063" stroke="white" stroke-width="1.5" stroke-linecap="round" stroke-linejoin="round"/>
<path d="M29.3485 38.0801C29.414 38.7879 28.9685 39.4824 28.5065 39.9994C28.049 40.5121 27.2562 40.5359 26.7689 40.0501L25.8346 39.1158" stroke="white" stroke-width="1.5" stroke-linecap="round" stroke-linejoin="round"/>
<path d="M41.3325 26.4844H47.8894" stroke="white" stroke-width="1.5" stroke-linecap="round" stroke-linejoin="round"/>
<path d="M43.717 37.2129H44.3131" stroke="white" stroke-width="1.5" stroke-linecap="round" stroke-linejoin="round"/>
</svg>
