<svg width="60" height="32" viewBox="0 0 60 32" fill="none" xmlns="http://www.w3.org/2000/svg">
<path d="M40.582 31.1374H18.9786C18.6862 31.1374 18.4485 30.8997 18.4485 30.6072V16.5526C18.4485 16.2602 18.6862 16.0225 18.9786 16.0225H40.582C40.8745 16.0225 41.1122 16.2602 41.1122 16.5526V30.6072C41.1122 30.8997 40.8745 31.1374 40.582 31.1374ZM19.5088 30.0785H40.0519V17.0828H19.5088V30.0785Z" fill="#5F5F5F"/>
<path d="M49.9994 11.3926H9.56286C9.27042 11.3926 9.03271 11.1549 9.03271 10.8625V7.30847C9.03271 7.01602 9.27042 6.77832 9.56286 6.77832C9.8553 6.77832 10.093 7.01602 10.093 7.30847V10.3323H49.4692V7.30847C49.4692 7.01602 49.7069 6.77832 49.9994 6.77832C50.2918 6.77832 50.5295 7.01602 50.5295 7.30847V10.8625C50.5295 11.1549 50.2918 11.3926 49.9994 11.3926Z" fill="#5F5F5F"/>
<path d="M59.4699 4.34056H41.2447C40.9523 4.34056 40.7146 4.10286 40.7146 3.81042C40.7146 3.51797 40.9523 3.28027 41.2447 3.28027H59.4699C59.7624 3.28027 60.0001 3.51797 60.0001 3.81042C60.0001 4.10286 59.7624 4.34056 59.4699 4.34056Z" fill="#5F5F5F"/>
<path d="M47.8557 24.9976H43.1824C42.8899 24.9976 42.6522 24.7599 42.6522 24.4675C42.6522 24.175 42.8899 23.9373 43.1824 23.9373H47.1296L43.6347 13.0636C43.5454 12.7856 43.6981 12.4859 43.9776 12.3966C44.2571 12.3073 44.5553 12.46 44.6446 12.7395L48.3614 24.3047C48.4132 24.466 48.3844 24.6418 48.285 24.7786C48.1856 24.9155 48.0257 24.9962 47.8572 24.9962L47.8557 24.9976Z" fill="#5F5F5F"/>
<path d="M16.158 24.997H11.8621C11.6921 24.997 11.5336 24.9163 11.4342 24.7795C11.3348 24.6426 11.306 24.4669 11.3579 24.3055L15.0746 12.7403C15.164 12.4623 15.4636 12.3081 15.7416 12.3974C16.0197 12.4868 16.1738 12.785 16.0845 13.0644L12.5896 23.9382H16.158C16.4504 23.9382 16.6881 24.1759 16.6881 24.4683C16.6881 24.7608 16.4504 24.9985 16.158 24.9985V24.997Z" fill="#5F5F5F"/>
<path d="M41.3527 11.3926H18.2078C18.0134 11.3926 17.8362 11.2874 17.7425 11.116C17.6503 10.946 17.6575 10.7386 17.7613 10.5758C19.5937 7.7248 22.7112 6.02344 26.0995 6.02344H33.4582C36.8465 6.02344 39.964 7.7248 41.7964 10.5758C41.9016 10.7386 41.9088 10.946 41.8151 11.116C41.7215 11.286 41.5443 11.3926 41.3498 11.3926H41.3527ZM19.2465 10.3337H40.314C38.6429 8.28232 36.1463 7.08517 33.4596 7.08517H26.101C23.4142 7.08517 20.9176 8.28376 19.2465 10.3337Z" fill="#5F5F5F"/>
<path d="M48.645 1.69695V6.14267C48.645 6.78713 49.1675 7.30957 49.8119 7.30957H50.9025C51.5469 7.30957 52.0694 6.78713 52.0694 6.14267V1.69695C52.0694 1.05249 51.5469 0.530056 50.9025 0.530056H49.8119C49.1675 0.530056 48.645 1.05249 48.645 1.69695Z" fill="#5F5F5F"/>
<path d="M51.0596 7.8398H49.6536C48.805 7.8398 48.115 7.14975 48.115 6.30123V1.53857C48.115 0.690053 48.805 0 49.6536 0H51.0596C51.9081 0 52.5982 0.690053 52.5982 1.53857V6.29979C52.5982 7.14831 51.9081 7.83836 51.0596 7.83836V7.8398ZM49.6536 1.06029C49.3899 1.06029 49.1738 1.27494 49.1738 1.54001V6.30123C49.1738 6.56486 49.3885 6.78096 49.6536 6.78096H51.0596C51.3232 6.78096 51.5393 6.5663 51.5393 6.30123V1.53857C51.5393 1.27494 51.3247 1.05885 51.0596 1.05885H49.6536V1.06029Z" fill="#5F5F5F"/>
<path d="M18.7553 4.34056H0.530145C0.237701 4.34056 0 4.10286 0 3.81042C0 3.51797 0.237701 3.28027 0.530145 3.28027H18.7553C19.0478 3.28027 19.2855 3.51797 19.2855 3.81042C19.2855 4.10286 19.0478 4.34056 18.7553 4.34056Z" fill="#5F5F5F"/>
<path d="M7.93201 1.69695V6.14268C7.93201 6.78713 8.45444 7.30957 9.0989 7.30957H10.1894C10.8339 7.30957 11.3563 6.78713 11.3563 6.14268V1.69695C11.3563 1.05249 10.8339 0.530056 10.1894 0.530056H9.0989C8.45444 0.530056 7.93201 1.05249 7.93201 1.69695Z" fill="#5F5F5F"/>
<path d="M10.345 7.8398H8.93896C8.09044 7.8398 7.40039 7.14975 7.40039 6.30123V1.53857C7.40039 0.690053 8.09044 0 8.93896 0H10.345C11.1935 0 11.8836 0.690053 11.8836 1.53857V6.29979C11.8836 7.14831 11.1935 7.83836 10.345 7.83836V7.8398ZM8.9404 1.06029C8.67677 1.06029 8.46068 1.27494 8.46068 1.54001V6.30123C8.46068 6.56486 8.67533 6.78096 8.9404 6.78096H10.3464C10.6101 6.78096 10.8262 6.5663 10.8262 6.30123V1.53857C10.8262 1.27494 10.6115 1.05885 10.3464 1.05885H8.9404V1.06029Z" fill="#5F5F5F"/>
<path d="M29.6664 27.364C27.5976 27.364 25.9136 25.6813 25.9136 23.6112C25.9136 21.541 27.5962 19.8584 29.6664 19.8584C31.7365 19.8584 33.4192 21.541 33.4192 23.6112C33.4192 25.6813 31.7365 27.364 29.6664 27.364ZM29.6664 21.0123C28.233 21.0123 27.0661 22.1792 27.0661 23.6126C27.0661 25.046 28.233 26.2129 29.6664 26.2129C31.0998 26.2129 32.2667 25.046 32.2667 23.6126C32.2667 22.1792 31.0998 21.0123 29.6664 21.0123Z" fill="#5F5F5F"/>
</svg>
