<svg width="40" height="55" viewBox="0 0 40 55" fill="none" xmlns="http://www.w3.org/2000/svg">
<path d="M32.5718 20.0374H4.36127C4.00655 20.0374 3.71924 19.7501 3.71924 19.3954V5.21145C3.71924 4.85673 4.00655 4.56943 4.36127 4.56943H10.5424C10.8971 4.56943 11.1844 4.85673 11.1844 5.21145C11.1844 5.56617 10.8971 5.85348 10.5424 5.85348H5.00329V18.7534H31.9298V6.96097H14.1586C13.9339 6.96097 13.7252 6.8438 13.6096 6.65119L11.4829 3.12487H4.35003C3.99531 3.12487 3.70801 2.83756 3.70801 2.48285C3.70801 2.12813 3.99531 1.84082 4.35003 1.84082H11.8425C12.0672 1.84082 12.2758 1.95799 12.3914 2.1506L14.5181 5.67692H32.5686C32.9234 5.67692 33.2107 5.96423 33.2107 6.31894V19.3954C33.2107 19.7501 32.9234 20.0374 32.5686 20.0374H32.5718Z" fill="#5F5F5F"/>
<path d="M24.2028 16.0427C23.8481 16.0427 23.5608 15.7554 23.5608 15.4007V10.9579H9.96593V14.7587H22.1756C22.5304 14.7587 22.8177 15.046 22.8177 15.4007C22.8177 15.7554 22.5304 16.0427 22.1756 16.0427H9.32391C8.96919 16.0427 8.68188 15.7554 8.68188 15.4007V10.3159C8.68188 9.96113 8.96919 9.67383 9.32391 9.67383H24.2028C24.5576 9.67383 24.8449 9.96113 24.8449 10.3159V15.4007C24.8449 15.7554 24.5576 16.0427 24.2028 16.0427Z" fill="#5F5F5F"/>
<path d="M39.3581 18.1745C39.265 18.1745 39.1719 18.1536 39.0836 18.1135L35.5428 16.4442C35.2218 16.2934 35.0854 15.9098 35.2363 15.5904C35.3871 15.2693 35.7691 15.1329 36.0902 15.2838L38.7144 16.5213V9.59705L35.8398 10.9148C35.5171 11.0625 35.1367 10.9212 34.9891 10.5986C34.8414 10.276 34.9827 9.89559 35.3053 9.74793L39.09 8.01285C39.289 7.92136 39.5202 7.93741 39.7048 8.05619C39.8893 8.17496 40.0001 8.3772 40.0001 8.5971V17.5341C40.0001 17.754 39.8877 17.9578 39.7015 18.0766C39.5972 18.1424 39.4768 18.1761 39.3581 18.1761V18.1745Z" fill="#5F5F5F"/>
<path d="M18.4664 54.2815C18.1116 54.2815 17.8243 53.9942 17.8243 53.6395V24.1625C17.8243 23.8078 18.1116 23.5205 18.4664 23.5205C18.8211 23.5205 19.1084 23.8078 19.1084 24.1625V53.6395C19.1084 53.9942 18.8211 54.2815 18.4664 54.2815Z" fill="#5F5F5F"/>
<path d="M0.642271 54.2818C0.528312 54.2818 0.414352 54.2513 0.310023 54.1887C0.00666636 54.0057 -0.0912425 53.6109 0.0933398 53.3075L17.9176 23.8305C18.1005 23.5272 18.4954 23.4293 18.7987 23.6138C19.1021 23.7968 19.2 24.1917 19.0154 24.495L1.1912 53.9704C1.07082 54.1694 0.858955 54.2802 0.640666 54.2802L0.642271 54.2818Z" fill="#5F5F5F"/>
<path d="M36.2925 54.282C36.0758 54.282 35.8639 54.1713 35.7419 53.9723L17.9177 24.4953C17.7347 24.1919 17.831 23.7971 18.1344 23.6141C18.4377 23.4311 18.8326 23.5274 19.0156 23.8308L36.8398 53.3078C37.0228 53.6111 36.9265 54.006 36.6231 54.1889C36.5188 54.2515 36.4048 54.282 36.2909 54.282H36.2925Z" fill="#5F5F5F"/>
<path d="M24.9976 24.7305H11.9356C11.5809 24.7305 11.2936 24.4432 11.2936 24.0885V19.3969C11.2936 19.0422 11.5809 18.7549 11.9356 18.7549H24.9976C25.3523 18.7549 25.6396 19.0422 25.6396 19.3969V24.0885C25.6396 24.4432 25.3523 24.7305 24.9976 24.7305ZM12.5776 23.4465H24.3556V20.0389H12.5776V23.4465Z" fill="#5F5F5F"/>
<path d="M28.4999 10.9692C29.1248 10.9692 29.6314 10.4626 29.6314 9.83762C29.6314 9.21268 29.1248 8.70605 28.4999 8.70605C27.8749 8.70605 27.3683 9.21268 27.3683 9.83762C27.3683 10.4626 27.8749 10.9692 28.4999 10.9692Z" fill="#5F5F5F"/>
<path d="M17.4168 6.76045C17.2531 6.76045 17.0878 6.69785 16.9626 6.57265C16.7122 6.32226 16.7122 5.91618 16.9626 5.66419L20.6831 1.94365C20.8035 1.82327 20.9672 1.75586 21.1373 1.75586H28.5768C28.9315 1.75586 29.2188 2.04317 29.2188 2.39788C29.2188 2.7526 28.9315 3.03991 28.5768 3.03991H21.4022L17.871 6.57265C17.7458 6.69785 17.5821 6.76045 17.4168 6.76045Z" fill="#5F5F5F"/>
<path d="M33.9185 4.58085H29.2269C28.8721 4.58085 28.5848 4.29354 28.5848 3.93882V0.642025C28.5848 0.287306 28.8721 0 29.2269 0H33.9185C35.1816 0 36.2089 1.02724 36.2089 2.29042C36.2089 3.55361 35.1816 4.58085 33.9185 4.58085ZM29.8689 3.2968H33.9185C34.4738 3.2968 34.9248 2.84578 34.9248 2.29042C34.9248 1.73507 34.4738 1.28405 33.9185 1.28405H29.8689V3.2968Z" fill="#5F5F5F"/>
<path d="M35.5492 16.4643H34.3069C33.9522 16.4643 33.6649 16.177 33.6649 15.8222C33.6649 15.4675 33.9522 15.1802 34.3069 15.1802H34.9072V11.0087H32.6922C32.3375 11.0087 32.0502 10.7214 32.0502 10.3666C32.0502 10.0119 32.3375 9.72461 32.6922 9.72461H35.5492C35.9039 9.72461 36.1912 10.0119 36.1912 10.3666V15.8222C36.1912 16.177 35.9039 16.4643 35.5492 16.4643Z" fill="#5F5F5F"/>
</svg>
