<svg width="49" height="48" viewBox="0 0 49 48" fill="none" xmlns="http://www.w3.org/2000/svg">
<path d="M2.591 17.5785C2.18199 17.5785 1.85071 17.2473 1.85071 16.8382V13.1368C1.85071 12.7278 2.18199 12.3965 2.591 12.3965C3.00001 12.3965 3.33129 12.7278 3.33129 13.1368V16.8382C3.33129 17.2473 3.00001 17.5785 2.591 17.5785Z" fill="#5F5F5F"/>
<path d="M4.44176 15.7277H0.740293C0.331281 15.7277 0 15.3964 0 14.9874C0 14.5784 0.331281 14.2471 0.740293 14.2471H4.44176C4.85077 14.2471 5.18205 14.5784 5.18205 14.9874C5.18205 15.3964 4.85077 15.7277 4.44176 15.7277Z" fill="#5F5F5F"/>
<path d="M44.5582 15.8923C44.1492 15.8923 43.8179 15.561 43.8179 15.152C43.8179 14.3155 42.2059 12.1908 40.8567 12.1908C40.4477 12.1908 40.1165 11.8596 40.1165 11.4505C40.1165 11.0415 40.4477 10.7103 40.8567 10.7103C42.2059 10.7103 43.8179 8.58561 43.8179 7.74908C43.8179 7.34007 44.1492 7.00879 44.5582 7.00879C44.9672 7.00879 45.2985 7.34007 45.2985 7.74908C45.2985 8.58561 46.9105 10.7103 48.2597 10.7103C48.6687 10.7103 49 11.0415 49 11.4505C49 11.8596 48.6687 12.1908 48.2597 12.1908C46.9105 12.1908 45.2985 14.3155 45.2985 15.152C45.2985 15.561 44.9672 15.8923 44.5582 15.8923ZM42.9388 11.4505C43.5792 11.8984 44.1436 12.5055 44.5582 13.1384C44.9746 12.5073 45.5372 11.9003 46.1776 11.4505C45.5372 11.0027 44.9728 10.3956 44.5582 9.76268C44.1418 10.3938 43.5792 11.0008 42.9388 11.4505Z" fill="#5F5F5F"/>
<path d="M24.6926 24.8758L14.7598 13.1885V24.8758H24.6926Z" fill="url(#paint0_linear_565_4562)"/>
<path d="M34.6254 24.8758V13.1885L24.6925 24.8758H34.6254Z" fill="url(#paint1_linear_565_4562)"/>
<path d="M34.6254 24.875L24.6925 46.5008L44.5583 24.875H34.6254Z" fill="url(#paint2_linear_565_4562)"/>
<path d="M4.8269 24.875L24.6927 46.5008L14.7598 24.875H4.8269Z" fill="url(#paint3_linear_565_4562)"/>
<path d="M44.5583 25.6153H34.6254C34.2164 25.6153 33.8851 25.284 33.8851 24.875V13.1858C33.8851 12.8749 34.0795 12.5973 34.37 12.4918C34.6606 12.3844 34.9882 12.4714 35.1899 12.7065L45.1228 24.3957C45.3097 24.6159 45.3523 24.9232 45.2301 25.186C45.1098 25.4469 44.847 25.6153 44.5583 25.6153ZM35.3657 24.1347H42.9574L35.3657 15.2013V24.1347Z" fill="#5F5F5F"/>
<path d="M29.9393 13.9288H14.7596C14.3506 13.9288 14.0193 13.5975 14.0193 13.1885C14.0193 12.7795 14.3506 12.4482 14.7596 12.4482H29.9393C30.3483 12.4482 30.6796 12.7795 30.6796 13.1885C30.6796 13.5975 30.3483 13.9288 29.9393 13.9288Z" fill="#5F5F5F"/>
<path d="M24.6926 25.6162C24.4761 25.6162 24.2688 25.5199 24.1281 25.3552L17.1842 17.1842C16.9195 16.8733 16.9566 16.4051 17.2693 16.1404C17.5803 15.8758 18.0485 15.9128 18.3131 16.2255L24.6926 23.734L34.061 12.7092C34.3257 12.3982 34.7921 12.3594 35.1048 12.624C35.4158 12.8887 35.4546 13.3551 35.19 13.6678L25.2571 25.357C25.1164 25.5218 24.911 25.618 24.6926 25.618V25.6162Z" fill="#5F5F5F"/>
<path d="M24.6925 47.241C24.513 47.241 24.3334 47.1763 24.1909 47.0467C23.8893 46.7709 23.8707 46.3027 24.1465 46.001L44.0123 24.3771C44.288 24.0754 44.7563 24.0569 45.0579 24.3327C45.3596 24.6084 45.3781 25.0767 45.1023 25.3783L25.2366 47.0023C25.0904 47.1614 24.8905 47.241 24.6906 47.241H24.6925Z" fill="#5F5F5F"/>
<path d="M14.7597 25.6157H4.82681C4.53809 25.6157 4.27529 25.4472 4.15499 25.1863C4.03469 24.9235 4.07541 24.6163 4.26233 24.396L14.1952 12.7068C14.3969 12.4699 14.7227 12.3848 15.0151 12.4921C15.3057 12.5995 15.5 12.8771 15.5 13.1861V24.8754C15.5 25.2844 15.1687 25.6157 14.7597 25.6157ZM6.42769 24.1351H14.0194V15.2016L6.42769 24.1351Z" fill="#5F5F5F"/>
<path d="M28.0017 40.0381C27.898 40.0381 27.7925 40.0159 27.6926 39.9696C27.3206 39.7994 27.1577 39.3589 27.328 38.9887L33.9518 24.5678C34.122 24.1958 34.5625 24.033 34.9327 24.2032C35.3047 24.3735 35.4675 24.814 35.2973 25.1841L28.6735 39.605C28.5495 39.8771 28.2811 40.0363 27.9998 40.0363L28.0017 40.0381Z" fill="#5F5F5F"/>
<path d="M30.2522 25.6154H18.4463C18.0373 25.6154 17.7061 25.2841 17.7061 24.8751C17.7061 24.466 18.0373 24.1348 18.4463 24.1348H30.2522C30.6612 24.1348 30.9925 24.466 30.9925 24.8751C30.9925 25.2841 30.6612 25.6154 30.2522 25.6154Z" fill="#5F5F5F"/>
<path d="M24.6944 47.2413C24.4926 47.2413 24.2928 47.1598 24.1484 47.0025L4.28264 25.3767C4.08461 25.1602 4.03279 24.8474 4.14939 24.579C4.26783 24.3107 4.53434 24.1367 4.82675 24.1367H14.7596C15.1686 24.1367 15.4999 24.468 15.4999 24.877C15.4999 25.286 15.1686 25.6173 14.7596 25.6173H6.51277L22.0589 42.5385L15.6295 28.5415C15.4592 28.1695 15.6221 27.7308 15.9941 27.5606C16.3661 27.3903 16.8047 27.5532 16.975 27.9252L25.3662 46.1937C25.5179 46.525 25.4069 46.9174 25.1034 47.1191C24.9775 47.2024 24.835 47.2431 24.6944 47.2431V47.2413Z" fill="#5F5F5F"/>
<path d="M24.6922 4.47692C24.2832 4.47692 23.9519 4.14564 23.9519 3.73663V0.740293C23.9519 0.331281 24.2832 0 24.6922 0C25.1012 0 25.4325 0.331281 25.4325 0.740293V3.73663C25.4325 4.14564 25.1012 4.47692 24.6922 4.47692Z" fill="#5F5F5F"/>
<path d="M19.6453 5.14861C19.4177 5.14861 19.1938 5.04497 19.0494 4.84694L17.4874 2.7297C17.2449 2.40027 17.3153 1.93759 17.6428 1.69514C17.9723 1.4527 18.435 1.52302 18.6774 1.8506L20.2394 3.96784C20.4819 4.29727 20.4115 4.75995 20.084 5.0024C19.9526 5.10049 19.7971 5.14676 19.6453 5.14676V5.14861Z" fill="#5F5F5F"/>
<path d="M29.741 5.14925C29.5892 5.14925 29.4338 5.10298 29.3024 5.00489C28.9729 4.76244 28.9026 4.29791 29.1469 3.97033L30.7089 1.85309C30.9514 1.52366 31.4159 1.45519 31.7435 1.69763C32.0729 1.94008 32.1432 2.40461 31.899 2.73219L30.3369 4.84943C30.1926 5.04561 29.9668 5.1511 29.741 5.1511V5.14925Z" fill="#5F5F5F"/>
<defs>
<linearGradient id="paint0_linear_565_4562" x1="16.5601" y1="14.7955" x2="24.0992" y2="22.2707" gradientUnits="userSpaceOnUse">
<stop stop-color="#FFC322"/>
<stop offset="1" stop-color="#F37E5B"/>
</linearGradient>
<linearGradient id="paint1_linear_565_4562" x1="26.4928" y1="14.7955" x2="34.032" y2="22.2707" gradientUnits="userSpaceOnUse">
<stop stop-color="#FFC322"/>
<stop offset="1" stop-color="#F37E5B"/>
</linearGradient>
<linearGradient id="paint2_linear_565_4562" x1="28.2932" y1="27.8485" x2="42.2104" y2="42.7638" gradientUnits="userSpaceOnUse">
<stop stop-color="#FFC322"/>
<stop offset="1" stop-color="#F37E5B"/>
</linearGradient>
<linearGradient id="paint3_linear_565_4562" x1="8.42757" y1="27.8485" x2="22.3448" y2="42.7638" gradientUnits="userSpaceOnUse">
<stop stop-color="#FFC322"/>
<stop offset="1" stop-color="#F37E5B"/>
</linearGradient>
</defs>
</svg>
