<svg width="52" height="44" viewBox="0 0 52 44" fill="none" xmlns="http://www.w3.org/2000/svg">
<path d="M1 1V19.2511L7.08367 20.4679L9.51714 24.9292L11.1395 23.7125L14.7897 20.0623L17.2231 20.4679L19.251 23.7125L21.6845 24.5237L23.3068 28.1739L26.1458 28.5795L26.957 31.8241H28.5793L31.4183 35.0688L26.1458 41.9636L27.3626 42.3692H29.3905L31.0128 40.3413L31.4183 38.3134H33.0407L34.663 36.6911L35.4741 33.852H37.9076L39.5299 31.8241V29.7962H41.5578L42.7745 28.5795L43.5857 26.9571L42.7745 24.9292L30.2016 12.7618L24.5235 18.44L22.0901 18.8455L20.0622 16.8176L20.4677 14.3842L26.1458 8.30045L25.7403 7.89487L20.8733 5.46138L16.412 5.0558L1 1Z" fill="url(#paint0_linear_565_4990)"/>
<path d="M27.7195 42.1585C28.6361 42.3369 29.6257 42.0774 30.3314 41.3635C30.8992 40.7957 31.175 40.0576 31.175 39.3032C31.175 38.5488 30.8992 37.8269 30.3314 37.2591C31.467 38.3947 33.3002 38.3947 34.4359 37.2591C35.5715 36.1234 35.5715 34.2902 34.4359 33.1546C35.5715 34.2902 37.3966 34.2902 38.5241 33.1546C39.6597 32.019 39.6597 30.1857 38.5241 29.0501C39.6597 30.1857 41.4929 30.1857 42.6285 29.0501C43.1963 28.4823 43.4721 27.7441 43.4721 27.006C43.4721 26.2678 43.1963 25.5135 42.6285 24.9456L40.8602 23.1773L30.3314 12.6484" stroke="#5F5F5F" stroke-width="1.5" stroke-linecap="round" stroke-linejoin="round"/>
<path d="M26.2271 8.55184C24.2803 6.73484 21.8549 5.72089 19.3728 5.47754" stroke="#5F5F5F" stroke-width="1.5" stroke-linecap="round" stroke-linejoin="round"/>
<path d="M9.82592 24.9458C8.59297 23.6317 7.71692 22.0986 7.23022 20.4844" stroke="#5F5F5F" stroke-width="1.5" stroke-linecap="round" stroke-linejoin="round"/>
<path d="M12.3157 22.4558L14.1083 20.6631C14.1813 20.5901 14.2381 20.5333 14.303 20.4766" stroke="#5F5F5F" stroke-width="1.5" stroke-linecap="round" stroke-linejoin="round"/>
<path d="M28.7258 38.8653L30.3319 37.2592L30.5185 37.0726C30.5915 36.9996 30.6483 36.9428 30.705 36.8779" stroke="#5F5F5F" stroke-width="1.5" stroke-linecap="round" stroke-linejoin="round"/>
<path d="M34.095 5.47754C31.7021 5.47754 29.3173 6.22381 27.2894 7.67578C26.9569 7.91102 26.6405 8.1787 26.3242 8.4545L26.2268 8.55184L20.857 13.9217C20.7759 13.9866 20.7272 14.0515 20.6704 14.1083" stroke="#5F5F5F" stroke-width="1.5" stroke-linecap="round" stroke-linejoin="round"/>
<path d="M45.1923 20.4844C44.9003 21.4659 44.7138 22.0094 44.1541 22.8854" stroke="#5F5F5F" stroke-width="1.5" stroke-linecap="round" stroke-linejoin="round"/>
<path d="M18.2067 21.0377L17.8338 20.6649C16.8043 19.6354 15.1351 19.6354 14.1056 20.6649L9.63174 25.1388C8.60221 26.1683 8.60221 27.8375 9.63173 28.8671L10.0046 29.2399C11.0341 30.2694 12.7033 30.2694 13.7328 29.2399L18.2067 24.766C19.2362 23.7365 19.2362 22.0673 18.2067 21.0377Z" stroke="#5F5F5F" stroke-width="1.5" stroke-linecap="round" stroke-linejoin="round"/>
<path d="M30.3312 12.6566L24.9532 18.0184C23.923 19.0485 22.252 19.0485 21.2219 18.0184L20.8487 17.6452C19.8916 16.6881 19.8186 15.1469 20.6622 14.1086C20.719 14.0356 20.7757 13.9788 20.8487 13.9139L26.2267 8.55212L26.3159 8.46289" stroke="#5F5F5F" stroke-width="1.5" stroke-linecap="round" stroke-linejoin="round"/>
<path d="M22.3099 25.1393L21.9371 24.7665C20.9076 23.7369 19.2384 23.7369 18.2089 24.7665L13.735 29.2404C12.7055 30.2699 12.7055 31.9391 13.735 32.9686L14.1078 33.3415C15.1374 34.371 16.8065 34.371 17.8361 33.3415L22.3099 28.8675C23.3395 27.838 23.3395 26.1688 22.3099 25.1393Z" stroke="#5F5F5F" stroke-width="1.5" stroke-linecap="round" stroke-linejoin="round"/>
<path d="M26.0418 28.8693L26.4145 29.2422C27.441 30.2691 27.4408 31.944 26.4139 32.9705L21.9335 37.4493C20.9066 38.4759 19.2318 38.4756 18.2053 37.4487L17.8325 37.0758C16.806 36.0489 16.8063 34.3741 17.8331 33.3475L22.3135 28.8687C23.3404 27.8422 25.0153 27.8425 26.0418 28.8693Z" stroke="#5F5F5F" stroke-width="1.5" stroke-linecap="round" stroke-linejoin="round"/>
<path d="M30.5183 33.3391L30.1454 32.9663C29.1157 31.937 27.4466 31.9373 26.4172 32.967L21.9441 37.4417C20.9148 38.4714 20.9151 40.1406 21.9448 41.1699L22.3177 41.5427C23.3474 42.572 25.0165 42.5717 26.0459 41.542L30.519 37.0674C31.5483 36.0376 31.548 34.3684 30.5183 33.3391Z" stroke="#5F5F5F" stroke-width="1.5" stroke-linecap="round" stroke-linejoin="round"/>
<path d="M38.5243 29.05L33.4871 24.0127" stroke="#5F5F5F" stroke-width="1.5" stroke-linecap="round" stroke-linejoin="round"/>
<path d="M34.436 33.1552L29.5042 28.2314" stroke="#5F5F5F" stroke-width="1.5" stroke-linecap="round" stroke-linejoin="round"/>
<path d="M14.3391 20.4844H14.3027" stroke="#5F5F5F" stroke-width="1.5" stroke-linecap="round" stroke-linejoin="round"/>
<path d="M51 19.3564L45.1921 20.484" stroke="#5F5F5F" stroke-width="1.5" stroke-linecap="round" stroke-linejoin="round"/>
<path d="M34.0957 5.47761L51.0002 1" stroke="#5F5F5F" stroke-width="1.5" stroke-linecap="round" stroke-linejoin="round"/>
<path d="M1.40601 19.3564L7.23011 20.484" stroke="#5F5F5F" stroke-width="1.5" stroke-linecap="round" stroke-linejoin="round"/>
<path d="M19.3731 5.47761C18.0266 5.47761 16.6882 5.29104 15.3984 4.92602L1.40601 1" stroke="#5F5F5F" stroke-width="1.5" stroke-linecap="round" stroke-linejoin="round"/>
<defs>
<linearGradient id="paint0_linear_565_4990" x1="8.71866" y1="6.68827" x2="34.9642" y2="38.2084" gradientUnits="userSpaceOnUse">
<stop stop-color="#FFC322"/>
<stop offset="1" stop-color="#F37E5B"/>
</linearGradient>
</defs>
</svg>
