<svg width="456" height="423" viewBox="0 0 456 423" fill="none" xmlns="http://www.w3.org/2000/svg">
<g opacity="0.3">
<circle cx="123.5" cy="299.5" r="122.75" stroke="white" stroke-width="1.5"/>
<path d="M65.5028 356.689H61.4559L61.4286 354.57H65.1884C65.7535 354.57 66.2548 354.443 66.6923 354.188C67.1298 353.932 67.4716 353.568 67.7177 353.094C67.9729 352.611 68.1005 352.036 68.1005 351.371C68.1005 350.642 67.9911 350.049 67.7723 349.594C67.5627 349.129 67.2391 348.792 66.8016 348.582C66.3733 348.363 65.8264 348.254 65.161 348.254H61.9891V366H59.4735V346.094H65.161C66.0178 346.094 66.7834 346.199 67.4579 346.408C68.1324 346.609 68.702 346.928 69.1669 347.365C69.6408 347.794 70.0009 348.34 70.247 349.006C70.493 349.671 70.6161 350.469 70.6161 351.398C70.6161 352.219 70.4292 352.962 70.0555 353.627C69.691 354.283 69.1805 354.821 68.5243 355.24C67.868 355.66 67.1115 355.928 66.2548 356.047L65.5028 356.689ZM65.4071 366H60.4169L61.8798 363.854H65.4071C66.0634 363.854 66.6194 363.708 67.0751 363.416C67.5308 363.124 67.8772 362.714 68.1141 362.186C68.3602 361.648 68.4833 361.014 68.4833 360.285C68.4833 359.547 68.383 358.909 68.1825 358.371C67.982 357.833 67.663 357.419 67.2255 357.127C66.788 356.835 66.2138 356.689 65.5028 356.689H62.2626L62.2899 354.57H66.6649L67.2255 355.336C68.0458 355.418 68.7339 355.691 69.2899 356.156C69.855 356.612 70.2789 357.195 70.5614 357.906C70.8531 358.617 70.9989 359.401 70.9989 360.258C70.9989 361.497 70.7665 362.546 70.3016 363.402C69.8459 364.25 69.1988 364.897 68.3602 365.344C67.5217 365.781 66.5373 366 65.4071 366ZM76.4523 346.094H82.0168C83.3111 346.094 84.3957 346.322 85.2707 346.777C86.1548 347.233 86.8202 347.908 87.2668 348.801C87.7225 349.685 87.9504 350.774 87.9504 352.068C87.9504 352.98 87.8 353.814 87.4992 354.57C87.1984 355.318 86.7609 355.956 86.1867 356.484C85.6125 357.004 84.9152 357.391 84.0949 357.646L83.4113 357.934H78.4484L78.4211 355.787H81.9895C82.7551 355.787 83.3931 355.623 83.9035 355.295C84.4139 354.958 84.7967 354.507 85.052 353.941C85.3072 353.376 85.4348 352.752 85.4348 352.068C85.4348 351.303 85.3208 350.633 85.093 350.059C84.8651 349.484 84.5005 349.042 83.9992 348.732C83.507 348.413 82.8462 348.254 82.0168 348.254H78.968V366H76.4523V346.094ZM86.009 366L82.0441 356.977L84.6555 356.963L88.7023 365.836V366H86.009ZM99.4468 347.857L94.0054 366H91.4351L97.8472 346.094H99.4605L99.4468 347.857ZM103.849 366L98.4077 347.857L98.3804 346.094H100.007L106.419 366H103.849ZM103.849 358.631V360.791H94.2515V358.631H103.849ZM123.849 346.094V366H121.32L113.349 350.646V366H110.834V346.094H113.349L121.361 361.488V346.094H123.849ZM134.389 366H130.998L131.026 363.854H134.389C135.583 363.854 136.554 363.626 137.301 363.17C138.048 362.705 138.6 362.021 138.955 361.119C139.311 360.208 139.488 359.082 139.488 357.742V354.338C139.488 353.281 139.388 352.369 139.188 351.604C138.987 350.838 138.686 350.209 138.285 349.717C137.884 349.225 137.378 348.86 136.768 348.623C136.157 348.377 135.442 348.254 134.621 348.254H130.93V346.094H134.621C135.742 346.094 136.754 346.271 137.656 346.627C138.559 346.973 139.333 347.497 139.981 348.199C140.628 348.892 141.12 349.753 141.457 350.783C141.804 351.813 141.977 353.007 141.977 354.365V357.742C141.977 359.1 141.804 360.294 141.457 361.324C141.12 362.354 140.623 363.215 139.967 363.908C139.311 364.601 138.513 365.125 137.574 365.48C136.645 365.827 135.583 366 134.389 366ZM132.393 346.094V366H129.877V346.094H132.393ZM150.178 346.094V366H147.663V346.094H150.178ZM169.249 346.094V366H166.72L158.749 350.646V366H156.233V346.094H158.749L166.761 361.488V346.094H169.249ZM187.745 356.088V363.512C187.526 363.803 187.194 364.168 186.747 364.605C186.31 365.043 185.694 365.43 184.901 365.768C184.109 366.105 183.069 366.273 181.784 366.273C180.754 366.273 179.811 366.1 178.954 365.754C178.107 365.408 177.373 364.888 176.753 364.195C176.142 363.493 175.668 362.623 175.331 361.584C174.994 360.536 174.825 359.31 174.825 357.906V354.174C174.825 352.779 174.967 351.558 175.249 350.51C175.532 349.462 175.951 348.591 176.507 347.898C177.072 347.206 177.769 346.686 178.599 346.34C179.437 345.993 180.413 345.82 181.525 345.82C182.81 345.82 183.903 346.062 184.806 346.545C185.708 347.028 186.405 347.725 186.898 348.637C187.399 349.548 187.681 350.642 187.745 351.918H185.23C185.166 351.098 184.993 350.396 184.71 349.812C184.428 349.22 184.026 348.769 183.507 348.459C182.987 348.14 182.327 347.98 181.525 347.98C180.759 347.98 180.112 348.108 179.583 348.363C179.054 348.618 178.622 349.001 178.284 349.512C177.956 350.022 177.715 350.665 177.56 351.439C177.414 352.214 177.341 353.117 177.341 354.146V357.906C177.341 358.964 177.446 359.884 177.655 360.668C177.865 361.452 178.161 362.099 178.544 362.609C178.936 363.12 179.405 363.503 179.952 363.758C180.499 364.004 181.114 364.127 181.798 364.127C182.573 364.127 183.183 364.045 183.63 363.881C184.077 363.717 184.418 363.53 184.655 363.32C184.901 363.111 185.097 362.942 185.243 362.814V358.221H181.593V356.088H187.745Z" fill="white"/>
<path d="M90.0184 280.262C89.384 280.262 88.8702 279.748 88.8702 279.114V273.373C88.8702 272.739 89.384 272.225 90.0184 272.225C90.6527 272.225 91.1665 272.739 91.1665 273.373V279.114C91.1665 279.748 90.6527 280.262 90.0184 280.262Z" fill="white"/>
<path d="M92.8887 277.392H87.1481C86.5138 277.392 86 276.878 86 276.244C86 275.609 86.5138 275.095 87.1481 275.095H92.8887C93.523 275.095 94.0368 275.609 94.0368 276.244C94.0368 276.878 93.523 277.392 92.8887 277.392Z" fill="white"/>
<path d="M155.105 277.647C154.471 277.647 153.957 277.134 153.957 276.499C153.957 275.202 151.457 271.907 149.365 271.907C148.73 271.907 148.217 271.393 148.217 270.759C148.217 270.124 148.73 269.61 149.365 269.61C151.457 269.61 153.957 266.315 153.957 265.018C153.957 264.384 154.471 263.87 155.105 263.87C155.74 263.87 156.253 264.384 156.253 265.018C156.253 266.315 158.753 269.61 160.846 269.61C161.48 269.61 161.994 270.124 161.994 270.759C161.994 271.393 161.48 271.907 160.846 271.907C158.753 271.907 156.253 275.202 156.253 276.499C156.253 277.134 155.74 277.647 155.105 277.647ZM152.594 270.759C153.587 271.453 154.462 272.395 155.105 273.376C155.751 272.398 156.624 271.456 157.617 270.759C156.624 270.064 155.748 269.123 155.105 268.141C154.459 269.12 153.587 270.061 152.594 270.759Z" fill="white"/>
<path d="M155.105 292.728H139.7C139.066 292.728 138.552 292.214 138.552 291.58V273.451C138.552 272.969 138.854 272.538 139.304 272.375C139.755 272.208 140.263 272.343 140.576 272.707L155.981 290.836C156.27 291.178 156.336 291.654 156.147 292.062C155.96 292.467 155.553 292.728 155.105 292.728ZM140.848 290.432H152.622L140.848 276.577V290.432Z" fill="white"/>
<path d="M132.433 274.602H108.89C108.256 274.602 107.742 274.088 107.742 273.454C107.742 272.819 108.256 272.306 108.89 272.306H132.433C133.067 272.306 133.581 272.819 133.581 273.454C133.581 274.088 133.067 274.602 132.433 274.602Z" fill="white"/>
<path d="M124.295 292.728C123.96 292.728 123.638 292.578 123.42 292.323L112.651 279.651C112.24 279.168 112.298 278.442 112.783 278.032C113.265 277.621 113.991 277.679 114.402 278.164L124.295 289.809L138.825 272.71C139.235 272.228 139.959 272.168 140.444 272.578C140.926 272.989 140.986 273.712 140.576 274.197L125.171 292.326C124.953 292.581 124.634 292.731 124.295 292.731V292.728Z" fill="white"/>
<path d="M124.295 326.267C124.017 326.267 123.739 326.167 123.518 325.966C123.05 325.538 123.021 324.812 123.449 324.344L154.258 290.808C154.686 290.34 155.412 290.311 155.88 290.739C156.348 291.166 156.377 291.893 155.949 292.36L125.139 325.897C124.912 326.144 124.602 326.267 124.292 326.267H124.295Z" fill="white"/>
<path d="M108.891 292.728H93.4857C93.0379 292.728 92.6304 292.467 92.4438 292.062C92.2572 291.654 92.3204 291.178 92.6103 290.836L108.015 272.707C108.328 272.34 108.833 272.208 109.287 272.375C109.737 272.541 110.039 272.972 110.039 273.451V291.58C110.039 292.214 109.525 292.728 108.891 292.728ZM95.9685 290.432H107.742V276.577L95.9685 290.432Z" fill="white"/>
<path d="M129.427 315.096C129.267 315.096 129.103 315.061 128.948 314.99C128.371 314.726 128.119 314.043 128.383 313.468L138.655 291.103C138.919 290.526 139.603 290.274 140.177 290.538C140.754 290.802 141.006 291.485 140.742 292.059L130.469 314.424C130.277 314.846 129.861 315.093 129.425 315.093L129.427 315.096Z" fill="white"/>
<path d="M132.918 292.728H114.608C113.974 292.728 113.46 292.214 113.46 291.58C113.46 290.945 113.974 290.432 114.608 290.432H132.918C133.552 290.432 134.066 290.945 134.066 291.58C134.066 292.214 133.552 292.728 132.918 292.728Z" fill="white"/>
<path d="M124.298 326.267C123.985 326.267 123.675 326.141 123.452 325.897L92.6418 292.357C92.3346 292.022 92.2543 291.537 92.4351 291.12C92.6188 290.704 93.0321 290.434 93.4856 290.434H108.89C109.525 290.434 110.039 290.948 110.039 291.582C110.039 292.217 109.525 292.731 108.89 292.731H96.1005L120.211 318.974L110.24 297.266C109.975 296.689 110.228 296.008 110.805 295.744C111.382 295.48 112.062 295.733 112.326 296.31L125.34 324.643C125.576 325.156 125.403 325.765 124.933 326.078C124.737 326.207 124.516 326.27 124.298 326.27V326.267Z" fill="white"/>
<path d="M124.296 259.943C123.661 259.943 123.147 259.429 123.147 258.795V254.148C123.147 253.514 123.661 253 124.296 253C124.93 253 125.444 253.514 125.444 254.148V258.795C125.444 259.429 124.93 259.943 124.296 259.943Z" fill="white"/>
<path d="M116.468 260.985C116.115 260.985 115.768 260.824 115.544 260.517L113.122 257.234C112.746 256.723 112.855 256.005 113.363 255.629C113.874 255.253 114.591 255.362 114.967 255.87L117.39 259.154C117.766 259.665 117.657 260.382 117.149 260.758C116.945 260.911 116.704 260.982 116.468 260.982V260.985Z" fill="white"/>
<path d="M132.126 260.985C131.89 260.985 131.649 260.913 131.445 260.761C130.935 260.385 130.825 259.665 131.204 259.157L133.627 255.873C134.003 255.362 134.723 255.256 135.231 255.632C135.742 256.008 135.851 256.729 135.472 257.237L133.05 260.52C132.826 260.824 132.476 260.988 132.126 260.988V260.985Z" fill="white"/>
</g>
<g opacity="0.3">
<circle cx="332" cy="299" r="123.25" stroke="white" stroke-width="1.5"/>
<path d="M264.071 346.094H266.505L271.714 362.322L276.909 346.094H279.343L272.657 366H270.743L264.071 346.094ZM263.278 346.094H265.411L265.78 358.234V366H263.278V346.094ZM277.989 346.094H280.122V366H277.62V358.234L277.989 346.094ZM292.821 347.857L287.38 366H284.81L291.222 346.094H292.835L292.821 347.857ZM297.224 366L291.782 347.857L291.755 346.094H293.382L299.794 366H297.224ZM297.224 358.631V360.791H287.626V358.631H297.224ZM304.222 346.094H309.787C311.081 346.094 312.166 346.322 313.041 346.777C313.925 347.233 314.59 347.908 315.037 348.801C315.492 349.685 315.72 350.774 315.72 352.068C315.72 352.98 315.57 353.814 315.269 354.57C314.968 355.318 314.531 355.956 313.957 356.484C313.382 357.004 312.685 357.391 311.865 357.646L311.181 357.934H306.218L306.191 355.787H309.759C310.525 355.787 311.163 355.623 311.673 355.295C312.184 354.958 312.567 354.507 312.822 353.941C313.077 353.376 313.205 352.752 313.205 352.068C313.205 351.303 313.091 350.633 312.863 350.059C312.635 349.484 312.27 349.042 311.769 348.732C311.277 348.413 310.616 348.254 309.787 348.254H306.738V366H304.222V346.094ZM313.779 366L309.814 356.977L312.425 356.963L316.472 365.836V366H313.779ZM323.279 346.094V366H320.764V346.094H323.279ZM333.287 346.094L326.437 355.377L322.431 360.203L321.98 357.387L324.92 353.531L330.279 346.094H333.287ZM330.785 366L324.92 356.293L326.41 354.201L333.779 366H330.785ZM348.434 363.854V366H339.793V363.854H348.434ZM340.244 346.094V366H337.729V346.094H340.244ZM347.272 354.652V356.799H339.793V354.652H347.272ZM348.297 346.094V348.254H339.793V346.094H348.297ZM359.999 346.094V366H357.51V346.094H359.999ZM365.235 346.094V348.254H352.288V346.094H365.235ZM372.479 346.094V366H369.964V346.094H372.479ZM391.55 346.094V366H389.021L381.05 350.646V366H378.534V346.094H381.05L389.062 361.488V346.094H391.55ZM410.046 356.088V363.512C409.828 363.803 409.495 364.168 409.048 364.605C408.611 365.043 407.996 365.43 407.203 365.768C406.41 366.105 405.371 366.273 404.085 366.273C403.055 366.273 402.112 366.1 401.255 365.754C400.408 365.408 399.674 364.888 399.054 364.195C398.443 363.493 397.97 362.623 397.632 361.584C397.295 360.536 397.126 359.31 397.126 357.906V354.174C397.126 352.779 397.268 351.558 397.55 350.51C397.833 349.462 398.252 348.591 398.808 347.898C399.373 347.206 400.07 346.686 400.9 346.34C401.738 345.993 402.714 345.82 403.826 345.82C405.111 345.82 406.205 346.062 407.107 346.545C408.009 347.028 408.706 347.725 409.199 348.637C409.7 349.548 409.983 350.642 410.046 351.918H407.531C407.467 351.098 407.294 350.396 407.011 349.812C406.729 349.22 406.328 348.769 405.808 348.459C405.289 348.14 404.628 347.98 403.826 347.98C403.06 347.98 402.413 348.108 401.884 348.363C401.356 348.618 400.923 349.001 400.585 349.512C400.257 350.022 400.016 350.665 399.861 351.439C399.715 352.214 399.642 353.117 399.642 354.146V357.906C399.642 358.964 399.747 359.884 399.956 360.668C400.166 361.452 400.462 362.099 400.845 362.609C401.237 363.12 401.706 363.503 402.253 363.758C402.8 364.004 403.415 364.127 404.099 364.127C404.874 364.127 405.484 364.045 405.931 363.881C406.378 363.717 406.72 363.53 406.956 363.32C407.203 363.111 407.399 362.942 407.544 362.814V358.221H403.894V356.088H410.046Z" fill="white"/>
<path d="M348.269 326.995H324.774C324.467 326.995 324.172 326.874 323.955 326.657L307.339 310.041C307.122 309.824 307 309.528 307 309.222V285.723C307 285.416 307.122 285.121 307.339 284.904L323.955 268.288C324.172 268.071 324.467 267.949 324.774 267.949H348.272C348.579 267.949 348.874 268.071 349.091 268.288L353.629 272.826C354.081 273.278 354.081 274.01 353.629 274.464C353.178 274.916 352.446 274.916 351.991 274.464L347.795 270.268H325.251L309.315 286.204V308.741L325.251 324.677H347.789L363.725 308.741V286.204L359.797 282.276C359.346 281.825 359.346 281.089 359.797 280.638C360.249 280.186 360.981 280.186 361.435 280.638L365.701 284.904C365.918 285.121 366.04 285.416 366.04 285.723V309.222C366.04 309.528 365.918 309.824 365.701 310.041L349.085 326.657C348.868 326.874 348.573 326.995 348.266 326.995H348.269Z" fill="white"/>
<path d="M344.075 316.866H328.97C328.663 316.866 328.368 316.744 328.151 316.527L317.471 305.847C317.254 305.63 317.133 305.335 317.133 305.028V289.923C317.133 289.616 317.254 289.321 317.471 289.104L328.151 278.424C328.368 278.207 328.663 278.085 328.97 278.085H344.075C344.382 278.085 344.677 278.207 344.894 278.424L355.574 289.104C355.791 289.321 355.913 289.616 355.913 289.923V305.028C355.913 305.335 355.791 305.63 355.574 305.847L344.894 316.527C344.677 316.744 344.382 316.866 344.075 316.866ZM329.448 314.55H343.595L353.597 304.548V290.4L343.595 280.398H329.448L319.445 290.4V304.548L329.448 314.55Z" fill="white"/>
<path d="M339.879 306.736H333.164C332.857 306.736 332.562 306.614 332.345 306.397L327.598 301.65C327.381 301.433 327.26 301.138 327.26 300.831V294.117C327.26 293.81 327.381 293.515 327.598 293.298L332.345 288.551C332.562 288.334 332.857 288.212 333.164 288.212H339.879C340.186 288.212 340.481 288.334 340.698 288.551L345.444 293.298C345.661 293.515 345.783 293.81 345.783 294.117V300.831C345.783 301.138 345.661 301.433 345.444 301.65L340.698 306.397C340.481 306.614 340.186 306.736 339.879 306.736ZM333.645 304.42H339.398L343.468 300.351V294.597L339.398 290.528H333.645L329.575 294.597V300.351L333.645 304.42Z" fill="white"/>
<path d="M359.728 275.431C359.615 275.431 359.502 275.414 359.392 275.382C358.984 275.258 358.677 274.919 358.593 274.502L357.129 267.177C357.053 266.798 357.172 266.404 357.444 266.132L366.234 257.339C366.535 257.038 366.981 256.925 367.389 257.05C367.797 257.174 368.104 257.513 368.188 257.93L369.652 265.255C369.727 265.634 369.609 266.028 369.337 266.3L360.547 275.09C360.327 275.31 360.032 275.428 359.728 275.428V275.431ZM359.519 267.33L360.44 271.926L367.261 265.105L366.341 260.509L359.519 267.33Z" fill="white"/>
<path d="M367.053 276.896C366.978 276.896 366.902 276.887 366.827 276.873L359.502 275.408C359.082 275.324 358.743 275.017 358.622 274.609C358.497 274.201 358.61 273.758 358.911 273.455L367.701 264.665C367.976 264.39 368.367 264.271 368.746 264.349L376.071 265.814C376.491 265.898 376.83 266.204 376.951 266.612C377.073 267.021 376.963 267.463 376.662 267.767L367.872 276.557C367.652 276.777 367.357 276.896 367.053 276.896ZM362.075 273.562L366.671 274.482L373.493 267.66L368.897 266.74L362.075 273.562Z" fill="white"/>
<path d="M336.521 298.632C336.226 298.632 335.928 298.519 335.702 298.293C335.251 297.842 335.251 297.109 335.702 296.655L367.698 264.665C368.15 264.213 368.882 264.213 369.336 264.665C369.788 265.116 369.788 265.848 369.336 266.303L337.34 298.293C337.115 298.519 336.819 298.632 336.521 298.632Z" fill="white"/>
</g>
<path d="M173.866 80.6172H169.669V77.8418H173.866C174.559 77.8418 175.115 77.696 175.534 77.4043C175.953 77.1126 176.259 76.7116 176.45 76.2012C176.651 75.6908 176.751 75.112 176.751 74.4648C176.751 73.8451 176.651 73.2617 176.45 72.7148C176.259 72.168 175.953 71.7259 175.534 71.3887C175.115 71.0514 174.559 70.8828 173.866 70.8828H170.612V88H167.29V68.0938H173.866C175.188 68.0938 176.309 68.3672 177.229 68.9141C178.159 69.4609 178.87 70.2129 179.362 71.1699C179.854 72.1178 180.1 73.207 180.1 74.4375C180.1 75.7227 179.854 76.8255 179.362 77.7461C178.87 78.6667 178.159 79.3776 177.229 79.8789C176.309 80.3711 175.188 80.6172 173.866 80.6172ZM195.439 85.2246V88H187.167V85.2246H195.439ZM188.042 68.0938V88H184.72V68.0938H188.042ZM206.908 70.8281L202.095 88H198.623L204.939 68.0938H207.099L206.908 70.8281ZM210.75 88L205.923 70.8281L205.691 68.0938H207.892L214.236 88H210.75ZM210.832 80.6035V83.3926H201.562V80.6035H210.832ZM231.68 68.0938V88H228.426L221.398 74.2188V88H218.185V68.0938H221.398L228.48 81.9707V68.0938H231.68ZM250.613 68.0938V88H247.36L240.332 74.2188V88H237.119V68.0938H240.332L247.414 81.9707V68.0938H250.613ZM259.512 68.0938V88H256.19V68.0938H259.512ZM278.528 68.0938V88H275.274L268.247 74.2188V88H265.034V68.0938H268.247L275.329 81.9707V68.0938H278.528ZM296.997 77.7871V85.6348C296.751 85.9355 296.377 86.2956 295.876 86.7148C295.384 87.125 294.719 87.4896 293.88 87.8086C293.051 88.1185 292.002 88.2734 290.735 88.2734C289.669 88.2734 288.694 88.1003 287.81 87.7539C286.935 87.4076 286.183 86.8835 285.554 86.1816C284.925 85.4798 284.442 84.6048 284.105 83.5566C283.767 82.4993 283.599 81.2507 283.599 79.8105V76.2695C283.599 74.8477 283.749 73.6081 284.05 72.5508C284.36 71.4935 284.811 70.6139 285.403 69.9121C285.996 69.2012 286.716 68.6771 287.564 68.3398C288.411 67.9935 289.387 67.8203 290.489 67.8203C291.884 67.8203 293.046 68.0664 293.976 68.5586C294.915 69.0417 295.63 69.7617 296.122 70.7188C296.623 71.6667 296.915 72.8242 296.997 74.1914H293.757C293.684 73.3529 293.525 72.6738 293.278 72.1543C293.041 71.6257 292.7 71.2337 292.253 70.9785C291.806 70.7233 291.232 70.5957 290.53 70.5957C289.892 70.5957 289.345 70.7051 288.89 70.9238C288.434 71.1426 288.06 71.4844 287.769 71.9492C287.477 72.4049 287.263 72.9883 287.126 73.6992C286.989 74.4102 286.921 75.2578 286.921 76.2422V79.8105C286.921 80.8132 287.008 81.6745 287.181 82.3945C287.354 83.1146 287.605 83.707 287.933 84.1719C288.27 84.6276 288.685 84.9648 289.177 85.1836C289.669 85.3932 290.23 85.498 290.859 85.498C291.478 85.498 291.97 85.4342 292.335 85.3066C292.7 85.179 292.982 85.0378 293.183 84.8828C293.392 84.7188 293.561 84.5911 293.689 84.5V80.3984H290.476V77.7871H296.997Z" fill="white"/>
<circle cx="232.5" cy="123.5" r="122.5" stroke="white" stroke-width="2"/>
<path d="M259.777 179H211.216C210.643 179 210.18 178.536 210.18 177.964L210.18 173.5C210.18 172.928 210.643 172.464 211.216 172.464C211.788 172.464 212.252 172.928 212.252 173.5L212.252 176.928H258.741V113.216C258.741 112.643 259.205 112.18 259.777 112.18C260.349 112.18 260.813 112.643 260.813 113.216V177.964C260.813 178.536 260.349 179 259.777 179Z" fill="white"/>
<path d="M254.597 173.82H206.036C205.464 173.82 205 173.357 205 172.784V108.036C205 107.464 205.464 107 206.036 107H254.597C255.169 107 255.633 107.464 255.633 108.036V172.784C255.633 173.357 255.169 173.82 254.597 173.82ZM207.072 171.748H253.561V109.072H207.072V171.748Z" fill="white"/>
<path d="M246.503 133.935H214.129V140.41H246.503V133.935Z" fill="url(#paint0_linear_623_1393)"/>
<path d="M246.503 147H214.129V153.475H246.503V147Z" fill="url(#paint1_linear_623_1393)"/>
<path d="M246.503 146.935H214.129V153.41H246.503V146.935Z" fill="url(#paint2_linear_623_1393)"/>
<path d="M246.504 134.971H214.129C213.557 134.971 213.094 134.508 213.094 133.935C213.094 133.363 213.557 132.899 214.129 132.899H246.504C247.076 132.899 247.54 133.363 247.54 133.935C247.54 134.508 247.076 134.971 246.504 134.971Z" fill="white"/>
<path d="M246.504 154.396C245.931 154.396 245.468 153.932 245.468 153.36V133.935C245.468 133.363 245.931 132.899 246.504 132.899C247.076 132.899 247.54 133.363 247.54 133.935V153.36C247.54 153.932 247.076 154.396 246.504 154.396Z" fill="white"/>
<path d="M214.129 154.396C213.557 154.396 213.094 153.932 213.094 153.36V133.935C213.094 133.363 213.557 132.899 214.129 132.899C214.702 132.899 215.165 133.363 215.165 133.935V153.36C215.165 153.932 214.702 154.396 214.129 154.396Z" fill="white"/>
<path d="M236.791 154.396C236.219 154.396 235.755 153.932 235.755 153.36V133.935C235.755 133.363 236.219 132.899 236.791 132.899C237.364 132.899 237.827 133.363 237.827 133.935V153.36C237.827 153.932 237.364 154.396 236.791 154.396Z" fill="white"/>
<path d="M225.95 128.496H214.129C213.557 128.496 213.094 128.033 213.094 127.46C213.094 126.888 213.557 126.424 214.129 126.424H225.95C226.522 126.424 226.986 126.888 226.986 127.46C226.986 128.033 226.522 128.496 225.95 128.496Z" fill="white"/>
<path d="M246.504 160.871H236.791C236.219 160.871 235.755 160.407 235.755 159.835C235.755 159.262 236.219 158.799 236.791 158.799H246.504C247.076 158.799 247.54 159.262 247.54 159.835C247.54 160.407 247.076 160.871 246.504 160.871Z" fill="white"/>
<path d="M246.504 141.446H214.129C213.557 141.446 213.094 140.982 213.094 140.41C213.094 139.838 213.557 139.374 214.129 139.374H246.504C247.076 139.374 247.54 139.838 247.54 140.41C247.54 140.982 247.076 141.446 246.504 141.446Z" fill="white"/>
<path d="M246.504 147.921H214.129C213.557 147.921 213.094 147.457 213.094 146.885C213.094 146.312 213.557 145.849 214.129 145.849H246.504C247.076 145.849 247.54 146.312 247.54 146.885C247.54 147.457 247.076 147.921 246.504 147.921Z" fill="white"/>
<path d="M246.504 154.396H214.129C213.557 154.396 213.094 153.932 213.094 153.36C213.094 152.787 213.557 152.324 214.129 152.324H246.504C247.076 152.324 247.54 152.787 247.54 153.36C247.54 153.932 247.076 154.396 246.504 154.396Z" fill="white"/>
<path d="M215.424 118.784H214.129C213.557 118.784 213.094 118.321 213.094 117.748C213.094 117.176 213.557 116.712 214.129 116.712H215.424C215.997 116.712 216.46 117.176 216.46 117.748C216.46 118.321 215.997 118.784 215.424 118.784Z" fill="white"/>
<path d="M220.604 118.784H219.309C218.737 118.784 218.273 118.321 218.273 117.748C218.273 117.176 218.737 116.712 219.309 116.712H220.604C221.177 116.712 221.64 117.176 221.64 117.748C221.64 118.321 221.177 118.784 220.604 118.784Z" fill="white"/>
<path d="M225.784 118.784H224.489C223.917 118.784 223.453 118.321 223.453 117.748C223.453 117.176 223.917 116.712 224.489 116.712H225.784C226.357 116.712 226.82 117.176 226.82 117.748C226.82 118.321 226.357 118.784 225.784 118.784Z" fill="white"/>
<path d="M236.144 128.496H234.849C234.277 128.496 233.813 128.033 233.813 127.46C233.813 126.888 234.277 126.424 234.849 126.424H236.144C236.716 126.424 237.18 126.888 237.18 127.46C237.18 128.033 236.716 128.496 236.144 128.496Z" fill="white"/>
<path d="M241.324 128.496H240.029C239.456 128.496 238.993 128.033 238.993 127.46C238.993 126.888 239.456 126.424 240.029 126.424H241.324C241.896 126.424 242.36 126.888 242.36 127.46C242.36 128.033 241.896 128.496 241.324 128.496Z" fill="white"/>
<path d="M246.504 128.496H245.209C244.636 128.496 244.173 128.033 244.173 127.46C244.173 126.888 244.636 126.424 245.209 126.424H246.504C247.076 126.424 247.54 126.888 247.54 127.46C247.54 128.033 247.076 128.496 246.504 128.496Z" fill="white"/>
<path d="M241.324 165.727H240.029C239.456 165.727 238.993 165.263 238.993 164.691C238.993 164.118 239.456 163.655 240.029 163.655H241.324C241.896 163.655 242.36 164.118 242.36 164.691C242.36 165.263 241.896 165.727 241.324 165.727Z" fill="white"/>
<path d="M246.503 165.727H245.208C244.636 165.727 244.172 165.263 244.172 164.691C244.172 164.118 244.636 163.655 245.208 163.655H246.503C247.076 163.655 247.539 164.118 247.539 164.691C247.539 165.263 247.076 165.727 246.503 165.727Z" fill="white"/>
<rect x="254" y="111" width="6.8" height="2" fill="white"/>
<defs>
<linearGradient id="paint0_linear_623_1393" x1="219.997" y1="134.826" x2="221.388" y2="142.941" gradientUnits="userSpaceOnUse">
<stop stop-color="#FFC322"/>
<stop offset="1" stop-color="#F37E5B"/>
</linearGradient>
<linearGradient id="paint1_linear_623_1393" x1="218.455" y1="147.944" x2="220.655" y2="157.498" gradientUnits="userSpaceOnUse">
<stop stop-color="#F5CEB5"/>
<stop offset="1" stop-color="#AE5675"/>
</linearGradient>
<linearGradient id="paint2_linear_623_1393" x1="219.997" y1="147.826" x2="221.388" y2="155.941" gradientUnits="userSpaceOnUse">
<stop stop-color="#FFC322"/>
<stop offset="1" stop-color="#F37E5B"/>
</linearGradient>
</defs>
</svg>
