<svg width="456" height="423" viewBox="0 0 456 423" fill="none" xmlns="http://www.w3.org/2000/svg">
<g opacity="0.3">
<circle cx="123.5" cy="299.5" r="122.75" stroke="white" stroke-width="1.5"/>
<path d="M65.5028 356.689H61.4559L61.4286 354.57H65.1884C65.7535 354.57 66.2548 354.443 66.6923 354.188C67.1298 353.932 67.4716 353.568 67.7177 353.094C67.9729 352.611 68.1005 352.036 68.1005 351.371C68.1005 350.642 67.9911 350.049 67.7723 349.594C67.5627 349.129 67.2391 348.792 66.8016 348.582C66.3733 348.363 65.8264 348.254 65.161 348.254H61.9891V366H59.4735V346.094H65.161C66.0178 346.094 66.7834 346.199 67.4579 346.408C68.1324 346.609 68.702 346.928 69.1669 347.365C69.6408 347.794 70.0009 348.34 70.247 349.006C70.493 349.671 70.6161 350.469 70.6161 351.398C70.6161 352.219 70.4292 352.962 70.0555 353.627C69.691 354.283 69.1805 354.821 68.5243 355.24C67.868 355.66 67.1115 355.928 66.2548 356.047L65.5028 356.689ZM65.4071 366H60.4169L61.8798 363.854H65.4071C66.0634 363.854 66.6194 363.708 67.0751 363.416C67.5308 363.124 67.8772 362.714 68.1141 362.186C68.3602 361.648 68.4833 361.014 68.4833 360.285C68.4833 359.547 68.383 358.909 68.1825 358.371C67.982 357.833 67.663 357.419 67.2255 357.127C66.788 356.835 66.2138 356.689 65.5028 356.689H62.2626L62.2899 354.57H66.6649L67.2255 355.336C68.0458 355.418 68.7339 355.691 69.2899 356.156C69.855 356.612 70.2789 357.195 70.5614 357.906C70.8531 358.617 70.9989 359.401 70.9989 360.258C70.9989 361.497 70.7665 362.546 70.3016 363.402C69.8459 364.25 69.1988 364.897 68.3602 365.344C67.5217 365.781 66.5373 366 65.4071 366ZM76.4523 346.094H82.0168C83.3111 346.094 84.3957 346.322 85.2707 346.777C86.1548 347.233 86.8202 347.908 87.2668 348.801C87.7225 349.685 87.9504 350.774 87.9504 352.068C87.9504 352.98 87.8 353.814 87.4992 354.57C87.1984 355.318 86.7609 355.956 86.1867 356.484C85.6125 357.004 84.9152 357.391 84.0949 357.646L83.4113 357.934H78.4484L78.4211 355.787H81.9895C82.7551 355.787 83.3931 355.623 83.9035 355.295C84.4139 354.958 84.7967 354.507 85.052 353.941C85.3072 353.376 85.4348 352.752 85.4348 352.068C85.4348 351.303 85.3208 350.633 85.093 350.059C84.8651 349.484 84.5005 349.042 83.9992 348.732C83.507 348.413 82.8462 348.254 82.0168 348.254H78.968V366H76.4523V346.094ZM86.009 366L82.0441 356.977L84.6555 356.963L88.7023 365.836V366H86.009ZM99.4468 347.857L94.0054 366H91.4351L97.8472 346.094H99.4605L99.4468 347.857ZM103.849 366L98.4077 347.857L98.3804 346.094H100.007L106.419 366H103.849ZM103.849 358.631V360.791H94.2515V358.631H103.849ZM123.849 346.094V366H121.32L113.349 350.646V366H110.834V346.094H113.349L121.361 361.488V346.094H123.849ZM134.389 366H130.998L131.026 363.854H134.389C135.583 363.854 136.554 363.626 137.301 363.17C138.048 362.705 138.6 362.021 138.955 361.119C139.311 360.208 139.488 359.082 139.488 357.742V354.338C139.488 353.281 139.388 352.369 139.188 351.604C138.987 350.838 138.686 350.209 138.285 349.717C137.884 349.225 137.378 348.86 136.768 348.623C136.157 348.377 135.442 348.254 134.621 348.254H130.93V346.094H134.621C135.742 346.094 136.754 346.271 137.656 346.627C138.559 346.973 139.333 347.497 139.981 348.199C140.628 348.892 141.12 349.753 141.457 350.783C141.804 351.813 141.977 353.007 141.977 354.365V357.742C141.977 359.1 141.804 360.294 141.457 361.324C141.12 362.354 140.623 363.215 139.967 363.908C139.311 364.601 138.513 365.125 137.574 365.48C136.645 365.827 135.583 366 134.389 366ZM132.393 346.094V366H129.877V346.094H132.393ZM150.178 346.094V366H147.663V346.094H150.178ZM169.249 346.094V366H166.72L158.749 350.646V366H156.233V346.094H158.749L166.761 361.488V346.094H169.249ZM187.745 356.088V363.512C187.526 363.803 187.194 364.168 186.747 364.605C186.31 365.043 185.694 365.43 184.901 365.768C184.109 366.105 183.069 366.273 181.784 366.273C180.754 366.273 179.811 366.1 178.954 365.754C178.107 365.408 177.373 364.888 176.753 364.195C176.142 363.493 175.668 362.623 175.331 361.584C174.994 360.536 174.825 359.31 174.825 357.906V354.174C174.825 352.779 174.967 351.558 175.249 350.51C175.532 349.462 175.951 348.591 176.507 347.898C177.072 347.206 177.769 346.686 178.599 346.34C179.437 345.993 180.413 345.82 181.525 345.82C182.81 345.82 183.903 346.062 184.806 346.545C185.708 347.028 186.405 347.725 186.898 348.637C187.399 349.548 187.681 350.642 187.745 351.918H185.23C185.166 351.098 184.993 350.396 184.71 349.812C184.428 349.22 184.026 348.769 183.507 348.459C182.987 348.14 182.327 347.98 181.525 347.98C180.759 347.98 180.112 348.108 179.583 348.363C179.054 348.618 178.622 349.001 178.284 349.512C177.956 350.022 177.715 350.665 177.56 351.439C177.414 352.214 177.341 353.117 177.341 354.146V357.906C177.341 358.964 177.446 359.884 177.655 360.668C177.865 361.452 178.161 362.099 178.544 362.609C178.936 363.12 179.405 363.503 179.952 363.758C180.499 364.004 181.114 364.127 181.798 364.127C182.573 364.127 183.183 364.045 183.63 363.881C184.077 363.717 184.418 363.53 184.655 363.32C184.901 363.111 185.097 362.942 185.243 362.814V358.221H181.593V356.088H187.745Z" fill="white"/>
<path d="M90.0184 280.262C89.384 280.262 88.8702 279.748 88.8702 279.114V273.373C88.8702 272.739 89.384 272.225 90.0184 272.225C90.6527 272.225 91.1665 272.739 91.1665 273.373V279.114C91.1665 279.748 90.6527 280.262 90.0184 280.262Z" fill="white"/>
<path d="M92.8887 277.392H87.1481C86.5138 277.392 86 276.878 86 276.244C86 275.609 86.5138 275.095 87.1481 275.095H92.8887C93.523 275.095 94.0368 275.609 94.0368 276.244C94.0368 276.878 93.523 277.392 92.8887 277.392Z" fill="white"/>
<path d="M155.105 277.647C154.471 277.647 153.957 277.133 153.957 276.499C153.957 275.202 151.457 271.907 149.365 271.907C148.73 271.907 148.217 271.393 148.217 270.759C148.217 270.124 148.73 269.61 149.365 269.61C151.457 269.61 153.957 266.315 153.957 265.018C153.957 264.384 154.471 263.87 155.105 263.87C155.74 263.87 156.253 264.384 156.253 265.018C156.253 266.315 158.753 269.61 160.846 269.61C161.48 269.61 161.994 270.124 161.994 270.759C161.994 271.393 161.48 271.907 160.846 271.907C158.753 271.907 156.253 275.202 156.253 276.499C156.253 277.133 155.74 277.647 155.105 277.647ZM152.594 270.759C153.587 271.453 154.462 272.395 155.105 273.376C155.751 272.397 156.624 271.456 157.617 270.759C156.624 270.064 155.748 269.122 155.105 268.141C154.459 269.12 153.587 270.061 152.594 270.759Z" fill="white"/>
<path d="M155.105 292.728H139.7C139.066 292.728 138.552 292.214 138.552 291.58V273.451C138.552 272.969 138.854 272.538 139.304 272.375C139.755 272.208 140.263 272.343 140.576 272.707L155.981 290.836C156.27 291.178 156.336 291.654 156.147 292.062C155.96 292.467 155.553 292.728 155.105 292.728ZM140.848 290.432H152.622L140.848 276.577V290.432Z" fill="white"/>
<path d="M132.433 274.602H108.89C108.256 274.602 107.742 274.088 107.742 273.454C107.742 272.819 108.256 272.306 108.89 272.306H132.433C133.067 272.306 133.581 272.819 133.581 273.454C133.581 274.088 133.067 274.602 132.433 274.602Z" fill="white"/>
<path d="M124.295 292.728C123.96 292.728 123.638 292.578 123.42 292.323L112.651 279.651C112.24 279.168 112.298 278.442 112.783 278.032C113.265 277.621 113.991 277.679 114.402 278.164L124.295 289.809L138.825 272.71C139.235 272.228 139.959 272.168 140.444 272.578C140.926 272.989 140.986 273.712 140.576 274.197L125.171 292.326C124.953 292.581 124.634 292.731 124.295 292.731V292.728Z" fill="white"/>
<path d="M124.295 326.267C124.017 326.267 123.739 326.167 123.518 325.966C123.05 325.538 123.021 324.812 123.449 324.344L154.258 290.808C154.686 290.34 155.412 290.311 155.88 290.739C156.348 291.166 156.377 291.893 155.949 292.36L125.139 325.897C124.912 326.144 124.602 326.267 124.292 326.267H124.295Z" fill="white"/>
<path d="M108.891 292.728H93.4857C93.0379 292.728 92.6304 292.467 92.4438 292.062C92.2572 291.654 92.3204 291.178 92.6103 290.836L108.015 272.707C108.328 272.34 108.833 272.208 109.287 272.375C109.737 272.541 110.039 272.972 110.039 273.451V291.58C110.039 292.214 109.525 292.728 108.891 292.728ZM95.9685 290.432H107.742V276.577L95.9685 290.432Z" fill="white"/>
<path d="M129.427 315.096C129.267 315.096 129.103 315.062 128.948 314.99C128.371 314.726 128.119 314.043 128.383 313.469L138.655 291.103C138.919 290.526 139.603 290.274 140.177 290.538C140.754 290.802 141.006 291.485 140.742 292.059L130.469 314.424C130.277 314.846 129.861 315.093 129.425 315.093L129.427 315.096Z" fill="white"/>
<path d="M132.918 292.728H114.608C113.974 292.728 113.46 292.214 113.46 291.58C113.46 290.945 113.974 290.432 114.608 290.432H132.918C133.552 290.432 134.066 290.945 134.066 291.58C134.066 292.214 133.552 292.728 132.918 292.728Z" fill="white"/>
<path d="M124.298 326.267C123.985 326.267 123.675 326.141 123.452 325.897L92.6418 292.357C92.3346 292.022 92.2543 291.537 92.4351 291.12C92.6188 290.704 93.0321 290.434 93.4856 290.434H108.89C109.525 290.434 110.039 290.948 110.039 291.583C110.039 292.217 109.525 292.731 108.89 292.731H96.1005L120.211 318.974L110.24 297.266C109.975 296.689 110.228 296.009 110.805 295.744C111.382 295.48 112.062 295.733 112.326 296.31L125.34 324.643C125.576 325.156 125.403 325.765 124.933 326.078C124.737 326.207 124.516 326.27 124.298 326.27V326.267Z" fill="white"/>
<path d="M124.296 259.943C123.661 259.943 123.147 259.429 123.147 258.795V254.148C123.147 253.514 123.661 253 124.296 253C124.93 253 125.444 253.514 125.444 254.148V258.795C125.444 259.429 124.93 259.943 124.296 259.943Z" fill="white"/>
<path d="M116.468 260.985C116.115 260.985 115.768 260.824 115.544 260.517L113.122 257.234C112.746 256.723 112.855 256.005 113.363 255.629C113.874 255.253 114.591 255.362 114.967 255.87L117.39 259.154C117.766 259.665 117.657 260.382 117.149 260.758C116.945 260.911 116.704 260.982 116.468 260.982V260.985Z" fill="white"/>
<path d="M132.126 260.985C131.89 260.985 131.649 260.913 131.445 260.761C130.935 260.385 130.825 259.665 131.204 259.157L133.627 255.873C134.003 255.362 134.723 255.256 135.231 255.632C135.742 256.008 135.851 256.728 135.472 257.237L133.05 260.52C132.826 260.824 132.476 260.988 132.126 260.988V260.985Z" fill="white"/>
</g>
<circle cx="332" cy="299" r="123.25" stroke="white" stroke-width="1.5"/>
<path d="M258.999 346.094H262.02L266.6 360.9L271.167 346.094H273.969L267.844 366H265.342L258.999 346.094ZM257.864 346.094H260.653L261.104 358.768V366H257.864V346.094ZM272.52 346.094H275.323V366H272.083V358.768L272.52 346.094ZM287.845 348.828L283.032 366H279.56L285.876 346.094H288.036L287.845 348.828ZM291.687 366L286.86 348.828L286.628 346.094H288.829L295.173 366H291.687ZM291.769 358.604V361.393H282.499V358.604H291.769ZM299.136 346.094H305.152C306.464 346.094 307.576 346.322 308.488 346.777C309.399 347.233 310.092 347.908 310.566 348.801C311.049 349.685 311.29 350.783 311.29 352.096C311.29 353.089 311.14 353.964 310.839 354.721C310.548 355.477 310.124 356.115 309.568 356.635C309.012 357.145 308.342 357.542 307.558 357.824L306.587 358.357H301.501L301.488 355.568H305.07C305.717 355.568 306.255 355.427 306.683 355.145C307.111 354.862 307.43 354.47 307.64 353.969C307.859 353.467 307.968 352.898 307.968 352.26C307.968 351.576 307.872 350.984 307.681 350.482C307.49 349.972 307.189 349.58 306.779 349.307C306.369 349.024 305.826 348.883 305.152 348.883H302.458V366H299.136V346.094ZM308.406 366L304.619 357.059L308.077 357.045L311.96 365.822V366H308.406ZM319.328 346.094V366H316.006V346.094H319.328ZM329.267 346.094L322.636 355.705L318.658 360.586L318.029 357.113L320.777 353.039L325.248 346.094H329.267ZM325.617 366L320.572 356.594L322.855 354.229L329.541 366H325.617ZM344.168 363.225V366H335.527V363.225H344.168ZM336.402 346.094V366H333.08V346.094H336.402ZM343.006 354.379V357.113H335.527V354.379H343.006ZM344.086 346.094V348.883H335.527V346.094H344.086ZM356.102 346.094V366H352.793V346.094H356.102ZM361.174 346.094V348.883H347.776V346.094H361.174ZM368.938 346.094V366H365.616V346.094H368.938ZM387.954 346.094V366H384.7L377.673 352.219V366H374.46V346.094H377.673L384.755 359.971V346.094H387.954ZM406.423 355.787V363.635C406.177 363.936 405.803 364.296 405.302 364.715C404.81 365.125 404.144 365.49 403.306 365.809C402.477 366.118 401.428 366.273 400.161 366.273C399.095 366.273 398.12 366.1 397.236 365.754C396.361 365.408 395.609 364.883 394.98 364.182C394.351 363.48 393.868 362.605 393.531 361.557C393.193 360.499 393.025 359.251 393.025 357.811V354.27C393.025 352.848 393.175 351.608 393.476 350.551C393.786 349.493 394.237 348.614 394.829 347.912C395.422 347.201 396.142 346.677 396.99 346.34C397.837 345.993 398.812 345.82 399.915 345.82C401.31 345.82 402.472 346.066 403.402 346.559C404.34 347.042 405.056 347.762 405.548 348.719C406.049 349.667 406.341 350.824 406.423 352.191H403.183C403.11 351.353 402.95 350.674 402.704 350.154C402.467 349.626 402.126 349.234 401.679 348.979C401.232 348.723 400.658 348.596 399.956 348.596C399.318 348.596 398.771 348.705 398.316 348.924C397.86 349.143 397.486 349.484 397.195 349.949C396.903 350.405 396.689 350.988 396.552 351.699C396.415 352.41 396.347 353.258 396.347 354.242V357.811C396.347 358.813 396.434 359.674 396.607 360.395C396.78 361.115 397.031 361.707 397.359 362.172C397.696 362.628 398.111 362.965 398.603 363.184C399.095 363.393 399.656 363.498 400.284 363.498C400.904 363.498 401.396 363.434 401.761 363.307C402.126 363.179 402.408 363.038 402.609 362.883C402.818 362.719 402.987 362.591 403.115 362.5V358.398H399.902V355.787H406.423Z" fill="white"/>
<g opacity="0.3">
<path d="M174.653 80.1934H170.306V78.0469H174.653C175.474 78.0469 176.134 77.8828 176.636 77.5547C177.146 77.2266 177.515 76.7708 177.743 76.1875C177.98 75.6042 178.099 74.9388 178.099 74.1914C178.099 73.5078 177.98 72.8652 177.743 72.2637C177.515 71.6621 177.146 71.179 176.636 70.8145C176.134 70.4408 175.474 70.2539 174.653 70.2539H170.825V88H168.309V68.0938H174.653C175.938 68.0938 177.023 68.3535 177.907 68.873C178.791 69.3926 179.461 70.1126 179.917 71.0332C180.382 71.9447 180.614 72.9883 180.614 74.1641C180.614 75.4401 180.382 76.5293 179.917 77.4316C179.461 78.334 178.791 79.0221 177.907 79.4961C177.023 79.9609 175.938 80.1934 174.653 80.1934ZM195.843 85.8535V88H187.585V85.8535H195.843ZM188.036 68.0938V88H185.521V68.0938H188.036ZM207.244 69.8574L201.802 88H199.232L205.644 68.0938H207.257L207.244 69.8574ZM211.646 88L206.205 69.8574L206.177 68.0938H207.804L214.216 88H211.646ZM211.646 80.6309V82.791H202.048V80.6309H211.646ZM231.646 68.0938V88H229.117L221.146 72.6465V88H218.631V68.0938H221.146L229.158 83.4883V68.0938H231.646ZM250.69 68.0938V88H248.16L240.19 72.6465V88H237.674V68.0938H240.19L248.201 83.4883V68.0938H250.69ZM259.342 68.0938V88H256.827V68.0938H259.342ZM278.413 68.0938V88H275.884L267.913 72.6465V88H265.397V68.0938H267.913L275.925 83.4883V68.0938H278.413ZM296.909 78.0879V85.5117C296.691 85.8034 296.358 86.168 295.911 86.6055C295.474 87.043 294.859 87.4303 294.066 87.7676C293.273 88.1048 292.234 88.2734 290.948 88.2734C289.918 88.2734 288.975 88.1003 288.118 87.7539C287.271 87.4076 286.537 86.888 285.917 86.1953C285.306 85.4935 284.832 84.623 284.495 83.584C284.158 82.5358 283.989 81.3099 283.989 79.9062V76.1738C283.989 74.7793 284.131 73.5579 284.413 72.5098C284.696 71.4616 285.115 70.5911 285.671 69.8984C286.236 69.2057 286.933 68.6862 287.763 68.3398C288.601 67.9935 289.577 67.8203 290.689 67.8203C291.974 67.8203 293.068 68.0618 293.97 68.5449C294.872 69.028 295.569 69.7253 296.062 70.6367C296.563 71.5482 296.845 72.6419 296.909 73.918H294.394C294.33 73.0977 294.157 72.3958 293.874 71.8125C293.592 71.2201 293.191 70.7689 292.671 70.459C292.151 70.14 291.491 69.9805 290.689 69.9805C289.923 69.9805 289.276 70.1081 288.747 70.3633C288.219 70.6185 287.786 71.0013 287.448 71.5117C287.12 72.0221 286.879 72.6647 286.724 73.4395C286.578 74.2142 286.505 75.1165 286.505 76.1465V79.9062C286.505 80.9635 286.61 81.8841 286.819 82.668C287.029 83.4518 287.325 84.099 287.708 84.6094C288.1 85.1198 288.569 85.5026 289.116 85.7578C289.663 86.0039 290.278 86.127 290.962 86.127C291.737 86.127 292.347 86.0449 292.794 85.8809C293.241 85.7168 293.582 85.5299 293.819 85.3203C294.066 85.1107 294.262 84.9421 294.407 84.8145V80.2207H290.757V78.0879H296.909Z" fill="white"/>
<circle cx="232.5" cy="123.5" r="122.5" stroke="white" stroke-width="2"/>
<path d="M259.777 179H211.216C210.643 179 210.18 178.536 210.18 177.964L210.18 173.5C210.18 172.928 210.643 172.464 211.216 172.464C211.788 172.464 212.252 172.928 212.252 173.5L212.252 176.928H258.741V113.216C258.741 112.643 259.205 112.18 259.777 112.18C260.349 112.18 260.813 112.643 260.813 113.216V177.964C260.813 178.536 260.349 179 259.777 179Z" fill="white"/>
<path d="M254.597 173.82H206.036C205.464 173.82 205 173.357 205 172.784V108.036C205 107.464 205.464 107 206.036 107H254.597C255.169 107 255.633 107.464 255.633 108.036V172.784C255.633 173.357 255.169 173.82 254.597 173.82ZM207.072 171.748H253.561V109.072H207.072V171.748Z" fill="white"/>
<path d="M246.504 134.971H214.129C213.557 134.971 213.094 134.508 213.094 133.935C213.094 133.363 213.557 132.899 214.129 132.899H246.504C247.076 132.899 247.54 133.363 247.54 133.935C247.54 134.508 247.076 134.971 246.504 134.971Z" fill="white"/>
<path d="M246.504 154.396C245.931 154.396 245.468 153.932 245.468 153.36V133.935C245.468 133.363 245.931 132.899 246.504 132.899C247.076 132.899 247.54 133.363 247.54 133.935V153.36C247.54 153.932 247.076 154.396 246.504 154.396Z" fill="white"/>
<path d="M214.129 154.396C213.557 154.396 213.094 153.932 213.094 153.36V133.935C213.094 133.363 213.557 132.899 214.129 132.899C214.702 132.899 215.165 133.363 215.165 133.935V153.36C215.165 153.932 214.702 154.396 214.129 154.396Z" fill="white"/>
<path d="M236.791 154.396C236.219 154.396 235.755 153.932 235.755 153.36V133.935C235.755 133.363 236.219 132.899 236.791 132.899C237.364 132.899 237.827 133.363 237.827 133.935V153.36C237.827 153.932 237.364 154.396 236.791 154.396Z" fill="white"/>
<path d="M225.95 128.496H214.129C213.557 128.496 213.094 128.033 213.094 127.46C213.094 126.888 213.557 126.424 214.129 126.424H225.95C226.522 126.424 226.986 126.888 226.986 127.46C226.986 128.033 226.522 128.496 225.95 128.496Z" fill="white"/>
<path d="M246.504 160.871H236.791C236.219 160.871 235.755 160.407 235.755 159.835C235.755 159.262 236.219 158.799 236.791 158.799H246.504C247.076 158.799 247.54 159.262 247.54 159.835C247.54 160.407 247.076 160.871 246.504 160.871Z" fill="white"/>
<path d="M246.504 141.446H214.129C213.557 141.446 213.094 140.982 213.094 140.41C213.094 139.838 213.557 139.374 214.129 139.374H246.504C247.076 139.374 247.54 139.838 247.54 140.41C247.54 140.982 247.076 141.446 246.504 141.446Z" fill="white"/>
<path d="M246.504 147.921H214.129C213.557 147.921 213.094 147.457 213.094 146.885C213.094 146.313 213.557 145.849 214.129 145.849H246.504C247.076 145.849 247.54 146.313 247.54 146.885C247.54 147.457 247.076 147.921 246.504 147.921Z" fill="white"/>
<path d="M246.504 154.396H214.129C213.557 154.396 213.094 153.932 213.094 153.36C213.094 152.787 213.557 152.324 214.129 152.324H246.504C247.076 152.324 247.54 152.787 247.54 153.36C247.54 153.932 247.076 154.396 246.504 154.396Z" fill="white"/>
<path d="M215.424 118.784H214.129C213.557 118.784 213.094 118.321 213.094 117.748C213.094 117.176 213.557 116.712 214.129 116.712H215.424C215.997 116.712 216.46 117.176 216.46 117.748C216.46 118.321 215.997 118.784 215.424 118.784Z" fill="white"/>
<path d="M220.604 118.784H219.309C218.737 118.784 218.273 118.321 218.273 117.748C218.273 117.176 218.737 116.712 219.309 116.712H220.604C221.177 116.712 221.64 117.176 221.64 117.748C221.64 118.321 221.177 118.784 220.604 118.784Z" fill="white"/>
<path d="M225.784 118.784H224.489C223.917 118.784 223.453 118.321 223.453 117.748C223.453 117.176 223.917 116.712 224.489 116.712H225.784C226.357 116.712 226.82 117.176 226.82 117.748C226.82 118.321 226.357 118.784 225.784 118.784Z" fill="white"/>
<path d="M236.144 128.496H234.849C234.277 128.496 233.813 128.033 233.813 127.46C233.813 126.888 234.277 126.424 234.849 126.424H236.144C236.716 126.424 237.18 126.888 237.18 127.46C237.18 128.033 236.716 128.496 236.144 128.496Z" fill="white"/>
<path d="M241.324 128.496H240.029C239.456 128.496 238.993 128.033 238.993 127.46C238.993 126.888 239.456 126.424 240.029 126.424H241.324C241.896 126.424 242.36 126.888 242.36 127.46C242.36 128.033 241.896 128.496 241.324 128.496Z" fill="white"/>
<path d="M246.504 128.496H245.209C244.636 128.496 244.173 128.033 244.173 127.46C244.173 126.888 244.636 126.424 245.209 126.424H246.504C247.076 126.424 247.54 126.888 247.54 127.46C247.54 128.033 247.076 128.496 246.504 128.496Z" fill="white"/>
<path d="M241.324 165.727H240.029C239.456 165.727 238.993 165.263 238.993 164.691C238.993 164.118 239.456 163.655 240.029 163.655H241.324C241.896 163.655 242.36 164.118 242.36 164.691C242.36 165.263 241.896 165.727 241.324 165.727Z" fill="white"/>
<path d="M246.503 165.727H245.208C244.636 165.727 244.172 165.263 244.172 164.691C244.172 164.118 244.636 163.655 245.208 163.655H246.503C247.076 163.655 247.539 164.118 247.539 164.691C247.539 165.263 247.076 165.727 246.503 165.727Z" fill="white"/>
<rect x="254" y="111" width="6.8" height="2" fill="white"/>
</g>
<path d="M348.269 327.995H324.774C324.467 327.995 324.172 327.874 323.955 327.657L307.339 311.041C307.122 310.824 307 310.528 307 310.222V286.723C307 286.416 307.122 286.121 307.339 285.904L323.955 269.288C324.172 269.071 324.467 268.95 324.774 268.95H348.272C348.579 268.95 348.874 269.071 349.091 269.288L353.629 273.826C354.081 274.278 354.081 275.01 353.629 275.465C353.178 275.916 352.446 275.916 351.991 275.465L347.795 271.268H325.251L309.315 287.204V309.741L325.251 325.677H347.789L363.725 309.741V287.204L359.797 283.276C359.346 282.825 359.346 282.089 359.797 281.638C360.249 281.186 360.981 281.186 361.435 281.638L365.701 285.904C365.918 286.121 366.04 286.416 366.04 286.723V310.222C366.04 310.528 365.918 310.824 365.701 311.041L349.085 327.657C348.868 327.874 348.573 327.995 348.266 327.995H348.269Z" fill="white"/>
<path d="M344.075 317.866H328.97C328.663 317.866 328.368 317.744 328.151 317.527L317.471 306.847C317.254 306.63 317.133 306.335 317.133 306.028V290.923C317.133 290.616 317.254 290.321 317.471 290.104L328.151 279.424C328.368 279.207 328.663 279.085 328.97 279.085H344.075C344.382 279.085 344.677 279.207 344.894 279.424L355.574 290.104C355.791 290.321 355.913 290.616 355.913 290.923V306.028C355.913 306.335 355.791 306.63 355.574 306.847L344.894 317.527C344.677 317.744 344.382 317.866 344.075 317.866ZM329.448 315.55H343.595L353.597 305.548V291.4L343.595 281.398H329.448L319.445 291.4V305.548L329.448 315.55Z" fill="white"/>
<path d="M339.879 290.37H333.164L328.418 295.117V301.832L333.164 306.578H339.879L344.625 301.832V295.117L339.879 290.37Z" fill="url(#paint0_linear_623_1554)"/>
<path d="M339.879 307.736H333.164C332.857 307.736 332.562 307.614 332.345 307.397L327.598 302.65C327.381 302.433 327.26 302.138 327.26 301.831V295.117C327.26 294.81 327.381 294.515 327.598 294.298L332.345 289.551C332.562 289.334 332.857 289.212 333.164 289.212H339.879C340.186 289.212 340.481 289.334 340.698 289.551L345.444 294.298C345.661 294.515 345.783 294.81 345.783 295.117V301.831C345.783 302.138 345.661 302.433 345.444 302.65L340.698 307.397C340.481 307.614 340.186 307.736 339.879 307.736ZM333.645 305.42H339.398L343.468 301.351V295.597L339.398 291.528H333.645L329.575 295.597V301.351L333.645 305.42Z" fill="white"/>
<path d="M358.263 267.948L367.053 259.158L368.518 266.484L359.728 275.274L358.263 267.948Z" fill="url(#paint1_linear_623_1554)"/>
<path d="M359.728 276.431C359.615 276.431 359.502 276.414 359.392 276.382C358.984 276.258 358.677 275.919 358.593 275.502L357.129 268.177C357.053 267.798 357.172 267.404 357.444 267.132L366.234 258.339C366.535 258.038 366.981 257.925 367.389 258.05C367.797 258.174 368.104 258.513 368.188 258.93L369.652 266.255C369.727 266.634 369.609 267.028 369.337 267.3L360.547 276.09C360.327 276.31 360.032 276.428 359.728 276.428V276.431ZM359.519 268.33L360.44 272.926L367.261 266.105L366.341 261.509L359.519 268.33Z" fill="white"/>
<path d="M367.053 276.738L375.843 267.948L368.518 266.484L359.728 275.273L367.053 276.738Z" fill="url(#paint2_linear_623_1554)"/>
<path d="M367.053 277.896C366.978 277.896 366.902 277.887 366.827 277.873L359.502 276.408C359.082 276.324 358.743 276.017 358.622 275.609C358.497 275.201 358.61 274.758 358.911 274.455L367.701 265.665C367.976 265.39 368.367 265.271 368.746 265.349L376.071 266.814C376.491 266.898 376.83 267.204 376.951 267.613C377.073 268.021 376.963 268.463 376.662 268.767L367.872 277.557C367.652 277.777 367.357 277.896 367.053 277.896ZM362.075 274.562L366.671 275.482L373.493 268.66L368.897 267.74L362.075 274.562Z" fill="white"/>
<path d="M336.521 299.632C336.226 299.632 335.928 299.519 335.702 299.293C335.251 298.842 335.251 298.109 335.702 297.655L367.698 265.665C368.15 265.213 368.882 265.213 369.336 265.665C369.788 266.116 369.788 266.848 369.336 267.303L337.34 299.293C337.115 299.519 336.819 299.632 336.521 299.632Z" fill="white"/>
<defs>
<linearGradient id="paint0_linear_623_1554" x1="331.355" y1="292.599" x2="341.688" y2="304.653" gradientUnits="userSpaceOnUse">
<stop stop-color="#FFC322"/>
<stop offset="1" stop-color="#F37E5B"/>
</linearGradient>
<linearGradient id="paint1_linear_623_1554" x1="360.122" y1="261.374" x2="370.073" y2="268.761" gradientUnits="userSpaceOnUse">
<stop stop-color="#FFC322"/>
<stop offset="1" stop-color="#F37E5B"/>
</linearGradient>
<linearGradient id="paint2_linear_623_1554" x1="362.649" y1="267.894" x2="368.21" y2="278.09" gradientUnits="userSpaceOnUse">
<stop stop-color="#FFC322"/>
<stop offset="1" stop-color="#F37E5B"/>
</linearGradient>
</defs>
</svg>
