<svg width="456" height="423" viewBox="0 0 456 423" fill="none" xmlns="http://www.w3.org/2000/svg">
<circle cx="123.5" cy="299.5" r="122.75" stroke="white" stroke-width="1.5"/>
<path d="M64.6884 357.031H60.6278L60.6141 354.488H64.2098C64.7658 354.488 65.2398 354.379 65.6317 354.16C66.0236 353.941 66.3199 353.622 66.5204 353.203C66.73 352.784 66.8348 352.278 66.8348 351.686C66.8348 351.029 66.7391 350.496 66.5477 350.086C66.3654 349.667 66.0829 349.361 65.7001 349.17C65.3173 348.979 64.8251 348.883 64.2235 348.883H61.6122V366H58.2899V346.094H64.2235C65.1532 346.094 65.9826 346.199 66.7118 346.408C67.441 346.618 68.0608 346.946 68.5712 347.393C69.0907 347.839 69.4826 348.4 69.747 349.074C70.0204 349.749 70.1571 350.551 70.1571 351.48C70.1571 352.292 69.9839 353.039 69.6376 353.723C69.2912 354.397 68.7763 354.953 68.0927 355.391C67.4182 355.819 66.5796 356.074 65.577 356.156L64.6884 357.031ZM64.5653 366H59.5341L61.0653 363.225H64.5653C65.1578 363.225 65.6454 363.097 66.0282 362.842C66.411 362.587 66.6981 362.231 66.8895 361.775C67.0809 361.32 67.1766 360.786 67.1766 360.176C67.1766 359.538 67.0946 358.982 66.9305 358.508C66.7665 358.034 66.5022 357.669 66.1376 357.414C65.773 357.159 65.2899 357.031 64.6884 357.031H61.3388L61.3661 354.488H65.6454L66.411 355.459C67.368 355.477 68.1473 355.714 68.7489 356.17C69.3505 356.617 69.7925 357.195 70.0751 357.906C70.3576 358.617 70.4989 359.378 70.4989 360.189C70.4989 361.456 70.2619 362.523 69.788 363.389C69.3231 364.245 68.6486 364.897 67.7645 365.344C66.8804 365.781 65.814 366 64.5653 366ZM75.5148 346.094H81.5305C82.843 346.094 83.955 346.322 84.8664 346.777C85.7779 347.233 86.4706 347.908 86.9445 348.801C87.4276 349.685 87.6691 350.783 87.6691 352.096C87.6691 353.089 87.5188 353.964 87.218 354.721C86.9263 355.477 86.5025 356.115 85.9465 356.635C85.3905 357.145 84.7206 357.542 83.9367 357.824L82.966 358.357H77.8801L77.8664 355.568H81.4484C82.0956 355.568 82.6333 355.427 83.0617 355.145C83.4901 354.862 83.8091 354.47 84.0188 353.969C84.2375 353.467 84.3469 352.898 84.3469 352.26C84.3469 351.576 84.2512 350.984 84.0598 350.482C83.8684 349.972 83.5676 349.58 83.1574 349.307C82.7473 349.024 82.205 348.883 81.5305 348.883H78.8371V366H75.5148V346.094ZM84.7844 366L80.9973 357.059L84.4563 357.045L88.3391 365.822V366H84.7844ZM99.2476 348.828L94.4351 366H90.9624L97.2788 346.094H99.439L99.2476 348.828ZM103.089 366L98.2632 348.828L98.0308 346.094H100.232L106.576 366H103.089ZM103.171 358.604V361.393H93.9019V358.604H103.171ZM124.019 346.094V366H120.765L113.738 352.219V366H110.525V346.094H113.738L120.82 359.971V346.094H124.019ZM134.34 366H130.881L130.908 363.225H134.34C135.406 363.225 136.259 363.029 136.897 362.637C137.535 362.236 137.995 361.625 138.278 360.805C138.56 359.984 138.701 358.936 138.701 357.66V354.42C138.701 353.436 138.619 352.597 138.455 351.904C138.3 351.202 138.054 350.633 137.717 350.195C137.389 349.749 136.956 349.421 136.418 349.211C135.88 348.992 135.233 348.883 134.477 348.883H130.813V346.094H134.477C135.616 346.094 136.646 346.276 137.567 346.641C138.487 347.005 139.276 347.543 139.932 348.254C140.597 348.956 141.108 349.826 141.463 350.865C141.819 351.904 141.996 353.098 141.996 354.447V357.66C141.996 359.009 141.819 360.203 141.463 361.242C141.108 362.272 140.597 363.143 139.932 363.854C139.266 364.555 138.464 365.089 137.526 365.453C136.587 365.818 135.525 366 134.34 366ZM132.781 346.094V366H129.459V346.094H132.781ZM150.512 346.094V366H147.19V346.094H150.512ZM169.528 346.094V366H166.274L159.247 352.219V366H156.034V346.094H159.247L166.329 359.971V346.094H169.528ZM187.997 355.787V363.635C187.751 363.936 187.377 364.296 186.876 364.715C186.384 365.125 185.719 365.49 184.88 365.809C184.051 366.118 183.002 366.273 181.735 366.273C180.669 366.273 179.694 366.1 178.81 365.754C177.935 365.408 177.183 364.883 176.554 364.182C175.925 363.48 175.442 362.605 175.105 361.557C174.767 360.499 174.599 359.251 174.599 357.811V354.27C174.599 352.848 174.749 351.608 175.05 350.551C175.36 349.493 175.811 348.614 176.403 347.912C176.996 347.201 177.716 346.677 178.564 346.34C179.411 345.993 180.387 345.82 181.489 345.82C182.884 345.82 184.046 346.066 184.976 346.559C185.915 347.042 186.63 347.762 187.122 348.719C187.623 349.667 187.915 350.824 187.997 352.191H184.757C184.684 351.353 184.525 350.674 184.278 350.154C184.041 349.626 183.7 349.234 183.253 348.979C182.806 348.723 182.232 348.596 181.53 348.596C180.892 348.596 180.345 348.705 179.89 348.924C179.434 349.143 179.06 349.484 178.769 349.949C178.477 350.405 178.263 350.988 178.126 351.699C177.989 352.41 177.921 353.258 177.921 354.242V357.811C177.921 358.813 178.008 359.674 178.181 360.395C178.354 361.115 178.605 361.707 178.933 362.172C179.27 362.628 179.685 362.965 180.177 363.184C180.669 363.393 181.23 363.498 181.859 363.498C182.478 363.498 182.97 363.434 183.335 363.307C183.7 363.179 183.982 363.038 184.183 362.883C184.392 362.719 184.561 362.591 184.689 362.5V358.398H181.476V355.787H187.997Z" fill="white"/>
<path d="M90.0184 280.262C89.384 280.262 88.8702 279.748 88.8702 279.114V273.373C88.8702 272.739 89.384 272.225 90.0184 272.225C90.6527 272.225 91.1665 272.739 91.1665 273.373V279.114C91.1665 279.748 90.6527 280.262 90.0184 280.262Z" fill="white"/>
<path d="M92.8887 277.392H87.1481C86.5138 277.392 86 276.878 86 276.244C86 275.609 86.5138 275.095 87.1481 275.095H92.8887C93.523 275.095 94.0368 275.609 94.0368 276.244C94.0368 276.878 93.523 277.392 92.8887 277.392Z" fill="white"/>
<path d="M155.105 277.647C154.471 277.647 153.957 277.134 153.957 276.499C153.957 275.202 151.457 271.907 149.365 271.907C148.73 271.907 148.217 271.393 148.217 270.759C148.217 270.124 148.73 269.61 149.365 269.61C151.457 269.61 153.957 266.315 153.957 265.018C153.957 264.384 154.471 263.87 155.105 263.87C155.74 263.87 156.253 264.384 156.253 265.018C156.253 266.315 158.753 269.61 160.846 269.61C161.48 269.61 161.994 270.124 161.994 270.759C161.994 271.393 161.48 271.907 160.846 271.907C158.753 271.907 156.253 275.202 156.253 276.499C156.253 277.134 155.74 277.647 155.105 277.647ZM152.594 270.759C153.587 271.453 154.462 272.395 155.105 273.376C155.751 272.398 156.624 271.456 157.617 270.759C156.624 270.064 155.748 269.123 155.105 268.141C154.459 269.12 153.587 270.061 152.594 270.759Z" fill="white"/>
<path d="M155.105 292.728H139.7C139.066 292.728 138.552 292.214 138.552 291.58V273.451C138.552 272.969 138.854 272.538 139.304 272.375C139.755 272.208 140.263 272.343 140.576 272.707L155.981 290.836C156.27 291.178 156.336 291.654 156.147 292.062C155.96 292.467 155.553 292.728 155.105 292.728ZM140.848 290.432H152.622L140.848 276.577V290.432Z" fill="white"/>
<path d="M132.433 274.602H108.89C108.256 274.602 107.742 274.088 107.742 273.454C107.742 272.819 108.256 272.306 108.89 272.306H132.433C133.067 272.306 133.581 272.819 133.581 273.454C133.581 274.088 133.067 274.602 132.433 274.602Z" fill="white"/>
<path d="M124.295 292.728C123.96 292.728 123.638 292.578 123.42 292.323L112.651 279.651C112.24 279.168 112.298 278.442 112.783 278.032C113.265 277.621 113.991 277.679 114.402 278.164L124.295 289.809L138.825 272.71C139.235 272.228 139.959 272.168 140.444 272.578C140.926 272.989 140.986 273.712 140.576 274.197L125.171 292.326C124.953 292.581 124.634 292.731 124.295 292.731V292.728Z" fill="white"/>
<path d="M124.295 326.267C124.017 326.267 123.739 326.167 123.518 325.966C123.05 325.538 123.021 324.812 123.449 324.344L154.258 290.808C154.686 290.34 155.412 290.311 155.88 290.739C156.348 291.166 156.377 291.893 155.949 292.36L125.139 325.897C124.912 326.144 124.602 326.267 124.292 326.267H124.295Z" fill="white"/>
<path d="M108.891 292.728H93.4857C93.0379 292.728 92.6304 292.467 92.4438 292.062C92.2572 291.654 92.3204 291.178 92.6103 290.836L108.015 272.707C108.328 272.34 108.833 272.208 109.287 272.375C109.737 272.541 110.039 272.972 110.039 273.451V291.58C110.039 292.214 109.525 292.728 108.891 292.728ZM95.9685 290.432H107.742V276.577L95.9685 290.432Z" fill="white"/>
<path d="M129.427 315.096C129.267 315.096 129.103 315.061 128.948 314.99C128.371 314.726 128.119 314.043 128.383 313.468L138.655 291.103C138.919 290.526 139.603 290.274 140.177 290.538C140.754 290.802 141.006 291.485 140.742 292.059L130.469 314.424C130.277 314.846 129.861 315.093 129.425 315.093L129.427 315.096Z" fill="white"/>
<path d="M132.918 292.728H114.608C113.974 292.728 113.46 292.214 113.46 291.58C113.46 290.945 113.974 290.432 114.608 290.432H132.918C133.552 290.432 134.066 290.945 134.066 291.58C134.066 292.214 133.552 292.728 132.918 292.728Z" fill="white"/>
<path d="M124.298 326.267C123.985 326.267 123.675 326.141 123.452 325.897L92.6418 292.357C92.3346 292.022 92.2543 291.537 92.4351 291.12C92.6188 290.704 93.0321 290.434 93.4856 290.434H108.89C109.525 290.434 110.039 290.948 110.039 291.582C110.039 292.217 109.525 292.731 108.89 292.731H96.1005L120.211 318.974L110.24 297.266C109.975 296.689 110.228 296.008 110.805 295.744C111.382 295.48 112.062 295.733 112.326 296.31L125.34 324.643C125.576 325.156 125.403 325.765 124.933 326.078C124.737 326.207 124.516 326.27 124.298 326.27V326.267Z" fill="white"/>
<path d="M124.296 259.943C123.661 259.943 123.147 259.429 123.147 258.795V254.148C123.147 253.514 123.661 253 124.296 253C124.93 253 125.444 253.514 125.444 254.148V258.795C125.444 259.429 124.93 259.943 124.296 259.943Z" fill="white"/>
<path d="M116.468 260.985C116.115 260.985 115.768 260.824 115.544 260.517L113.122 257.234C112.746 256.723 112.855 256.005 113.363 255.629C113.874 255.253 114.591 255.362 114.967 255.87L117.39 259.154C117.766 259.665 117.657 260.382 117.149 260.758C116.945 260.911 116.704 260.982 116.468 260.982V260.985Z" fill="white"/>
<path d="M132.126 260.985C131.89 260.985 131.649 260.913 131.445 260.761C130.935 260.385 130.825 259.665 131.204 259.157L133.627 255.873C134.003 255.362 134.723 255.256 135.231 255.632C135.742 256.008 135.851 256.729 135.472 257.237L133.05 260.52C132.826 260.824 132.476 260.988 132.126 260.988V260.985Z" fill="white"/>
<g opacity="0.3">
<circle cx="332" cy="299" r="123.25" stroke="white" stroke-width="1.5"/>
<path d="M264.071 346.094H266.505L271.714 362.322L276.909 346.094H279.343L272.657 366H270.743L264.071 346.094ZM263.278 346.094H265.411L265.78 358.234V366H263.278V346.094ZM277.989 346.094H280.122V366H277.62V358.234L277.989 346.094ZM292.821 347.857L287.38 366H284.81L291.222 346.094H292.835L292.821 347.857ZM297.224 366L291.782 347.857L291.755 346.094H293.382L299.794 366H297.224ZM297.224 358.631V360.791H287.626V358.631H297.224ZM304.222 346.094H309.787C311.081 346.094 312.166 346.322 313.041 346.777C313.925 347.233 314.59 347.908 315.037 348.801C315.492 349.685 315.72 350.774 315.72 352.068C315.72 352.98 315.57 353.814 315.269 354.57C314.968 355.318 314.531 355.956 313.957 356.484C313.382 357.004 312.685 357.391 311.865 357.646L311.181 357.934H306.218L306.191 355.787H309.759C310.525 355.787 311.163 355.623 311.673 355.295C312.184 354.958 312.567 354.507 312.822 353.941C313.077 353.376 313.205 352.752 313.205 352.068C313.205 351.303 313.091 350.633 312.863 350.059C312.635 349.484 312.27 349.042 311.769 348.732C311.277 348.413 310.616 348.254 309.787 348.254H306.738V366H304.222V346.094ZM313.779 366L309.814 356.977L312.425 356.963L316.472 365.836V366H313.779ZM323.279 346.094V366H320.764V346.094H323.279ZM333.287 346.094L326.437 355.377L322.431 360.203L321.98 357.387L324.92 353.531L330.279 346.094H333.287ZM330.785 366L324.92 356.293L326.41 354.201L333.779 366H330.785ZM348.434 363.854V366H339.793V363.854H348.434ZM340.244 346.094V366H337.729V346.094H340.244ZM347.272 354.652V356.799H339.793V354.652H347.272ZM348.297 346.094V348.254H339.793V346.094H348.297ZM359.999 346.094V366H357.51V346.094H359.999ZM365.235 346.094V348.254H352.288V346.094H365.235ZM372.479 346.094V366H369.964V346.094H372.479ZM391.55 346.094V366H389.021L381.05 350.646V366H378.534V346.094H381.05L389.062 361.488V346.094H391.55ZM410.046 356.088V363.512C409.828 363.803 409.495 364.168 409.048 364.605C408.611 365.043 407.996 365.43 407.203 365.768C406.41 366.105 405.371 366.273 404.085 366.273C403.055 366.273 402.112 366.1 401.255 365.754C400.408 365.408 399.674 364.888 399.054 364.195C398.443 363.493 397.97 362.623 397.632 361.584C397.295 360.536 397.126 359.31 397.126 357.906V354.174C397.126 352.779 397.268 351.558 397.55 350.51C397.833 349.462 398.252 348.591 398.808 347.898C399.373 347.206 400.07 346.686 400.9 346.34C401.738 345.993 402.714 345.82 403.826 345.82C405.111 345.82 406.205 346.062 407.107 346.545C408.009 347.028 408.706 347.725 409.199 348.637C409.7 349.548 409.983 350.642 410.046 351.918H407.531C407.467 351.098 407.294 350.396 407.011 349.812C406.729 349.22 406.328 348.769 405.808 348.459C405.289 348.14 404.628 347.98 403.826 347.98C403.06 347.98 402.413 348.108 401.884 348.363C401.356 348.618 400.923 349.001 400.585 349.512C400.257 350.022 400.016 350.665 399.861 351.439C399.715 352.214 399.642 353.117 399.642 354.146V357.906C399.642 358.964 399.747 359.884 399.956 360.668C400.166 361.452 400.462 362.099 400.845 362.609C401.237 363.12 401.706 363.503 402.253 363.758C402.8 364.004 403.415 364.127 404.099 364.127C404.874 364.127 405.484 364.045 405.931 363.881C406.378 363.717 406.72 363.53 406.956 363.32C407.203 363.111 407.399 362.942 407.544 362.814V358.221H403.894V356.088H410.046Z" fill="white"/>
<path d="M348.269 324.995H324.774C324.467 324.995 324.172 324.874 323.955 324.657L307.339 308.041C307.122 307.824 307 307.528 307 307.222V283.723C307 283.416 307.122 283.121 307.339 282.904L323.955 266.288C324.172 266.071 324.467 265.949 324.774 265.949H348.272C348.579 265.949 348.874 266.071 349.091 266.288L353.629 270.826C354.081 271.278 354.081 272.01 353.629 272.464C353.178 272.916 352.446 272.916 351.991 272.464L347.795 268.268H325.251L309.315 284.204V306.741L325.251 322.677H347.789L363.725 306.741V284.204L359.797 280.276C359.346 279.825 359.346 279.089 359.797 278.638C360.249 278.186 360.981 278.186 361.435 278.638L365.701 282.904C365.918 283.121 366.04 283.416 366.04 283.723V307.222C366.04 307.528 365.918 307.824 365.701 308.041L349.085 324.657C348.868 324.874 348.573 324.995 348.266 324.995H348.269Z" fill="white"/>
<path d="M344.075 314.866H328.97C328.663 314.866 328.368 314.744 328.151 314.527L317.471 303.847C317.254 303.63 317.133 303.335 317.133 303.028V287.923C317.133 287.616 317.254 287.321 317.471 287.104L328.151 276.424C328.368 276.207 328.663 276.085 328.97 276.085H344.075C344.382 276.085 344.677 276.207 344.894 276.424L355.574 287.104C355.791 287.321 355.913 287.616 355.913 287.923V303.028C355.913 303.335 355.791 303.63 355.574 303.847L344.894 314.527C344.677 314.744 344.382 314.866 344.075 314.866ZM329.448 312.55H343.595L353.597 302.548V288.4L343.595 278.398H329.448L319.445 288.4V302.548L329.448 312.55Z" fill="white"/>
<path d="M339.879 304.736H333.164C332.857 304.736 332.562 304.614 332.345 304.397L327.598 299.65C327.381 299.433 327.26 299.138 327.26 298.831V292.117C327.26 291.81 327.381 291.515 327.598 291.298L332.345 286.551C332.562 286.334 332.857 286.212 333.164 286.212H339.879C340.186 286.212 340.481 286.334 340.698 286.551L345.444 291.298C345.661 291.515 345.783 291.81 345.783 292.117V298.831C345.783 299.138 345.661 299.433 345.444 299.65L340.698 304.397C340.481 304.614 340.186 304.736 339.879 304.736ZM333.645 302.42H339.398L343.468 298.351V292.597L339.398 288.528H333.645L329.575 292.597V298.351L333.645 302.42Z" fill="white"/>
<path d="M359.728 273.431C359.615 273.431 359.502 273.414 359.392 273.382C358.984 273.258 358.677 272.919 358.593 272.502L357.129 265.177C357.053 264.798 357.172 264.404 357.444 264.132L366.234 255.339C366.535 255.038 366.981 254.925 367.389 255.05C367.797 255.174 368.104 255.513 368.188 255.93L369.652 263.255C369.727 263.634 369.609 264.028 369.337 264.3L360.547 273.09C360.327 273.31 360.032 273.428 359.728 273.428V273.431ZM359.519 265.33L360.44 269.926L367.261 263.105L366.341 258.509L359.519 265.33Z" fill="white"/>
<path d="M367.053 274.896C366.978 274.896 366.902 274.887 366.827 274.873L359.502 273.408C359.082 273.324 358.743 273.017 358.622 272.609C358.497 272.201 358.61 271.758 358.911 271.455L367.701 262.665C367.976 262.39 368.367 262.271 368.746 262.349L376.071 263.814C376.491 263.898 376.83 264.204 376.951 264.612C377.073 265.021 376.963 265.463 376.662 265.767L367.872 274.557C367.652 274.777 367.357 274.896 367.053 274.896ZM362.075 271.562L366.671 272.482L373.493 265.66L368.897 264.74L362.075 271.562Z" fill="white"/>
<path d="M336.521 296.632C336.226 296.632 335.928 296.519 335.702 296.293C335.251 295.842 335.251 295.109 335.702 294.655L367.698 262.665C368.15 262.213 368.882 262.213 369.336 262.665C369.788 263.116 369.788 263.848 369.336 264.303L337.34 296.293C337.115 296.519 336.819 296.632 336.521 296.632Z" fill="white"/>
</g>
<g opacity="0.3">
<path d="M173.866 80.6172H169.669V77.8418H173.866C174.559 77.8418 175.115 77.696 175.534 77.4043C175.953 77.1126 176.259 76.7116 176.45 76.2012C176.651 75.6908 176.751 75.112 176.751 74.4648C176.751 73.8451 176.651 73.2617 176.45 72.7148C176.259 72.168 175.953 71.7259 175.534 71.3887C175.115 71.0514 174.559 70.8828 173.866 70.8828H170.612V88H167.29V68.0938H173.866C175.188 68.0938 176.309 68.3672 177.229 68.9141C178.159 69.4609 178.87 70.2129 179.362 71.1699C179.854 72.1178 180.1 73.207 180.1 74.4375C180.1 75.7227 179.854 76.8255 179.362 77.7461C178.87 78.6667 178.159 79.3776 177.229 79.8789C176.309 80.3711 175.188 80.6172 173.866 80.6172ZM195.439 85.2246V88H187.167V85.2246H195.439ZM188.042 68.0938V88H184.72V68.0938H188.042ZM206.908 70.8281L202.095 88H198.623L204.939 68.0938H207.099L206.908 70.8281ZM210.75 88L205.923 70.8281L205.691 68.0938H207.892L214.236 88H210.75ZM210.832 80.6035V83.3926H201.562V80.6035H210.832ZM231.68 68.0938V88H228.426L221.398 74.2188V88H218.185V68.0938H221.398L228.48 81.9707V68.0938H231.68ZM250.613 68.0938V88H247.36L240.332 74.2188V88H237.119V68.0938H240.332L247.414 81.9707V68.0938H250.613ZM259.512 68.0938V88H256.19V68.0938H259.512ZM278.528 68.0938V88H275.274L268.247 74.2188V88H265.034V68.0938H268.247L275.329 81.9707V68.0938H278.528ZM296.997 77.7871V85.6348C296.751 85.9355 296.377 86.2956 295.876 86.7148C295.384 87.125 294.719 87.4896 293.88 87.8086C293.051 88.1185 292.002 88.2734 290.735 88.2734C289.669 88.2734 288.694 88.1003 287.81 87.7539C286.935 87.4076 286.183 86.8835 285.554 86.1816C284.925 85.4798 284.442 84.6048 284.105 83.5566C283.767 82.4993 283.599 81.2507 283.599 79.8105V76.2695C283.599 74.8477 283.749 73.6081 284.05 72.5508C284.36 71.4935 284.811 70.6139 285.403 69.9121C285.996 69.2012 286.716 68.6771 287.564 68.3398C288.411 67.9935 289.387 67.8203 290.489 67.8203C291.884 67.8203 293.046 68.0664 293.976 68.5586C294.915 69.0417 295.63 69.7617 296.122 70.7188C296.623 71.6667 296.915 72.8242 296.997 74.1914H293.757C293.684 73.3529 293.525 72.6738 293.278 72.1543C293.041 71.6257 292.7 71.2337 292.253 70.9785C291.806 70.7233 291.232 70.5957 290.53 70.5957C289.892 70.5957 289.345 70.7051 288.89 70.9238C288.434 71.1426 288.06 71.4844 287.769 71.9492C287.477 72.4049 287.263 72.9883 287.126 73.6992C286.989 74.4102 286.921 75.2578 286.921 76.2422V79.8105C286.921 80.8132 287.008 81.6745 287.181 82.3945C287.354 83.1146 287.605 83.707 287.933 84.1719C288.27 84.6276 288.685 84.9648 289.177 85.1836C289.669 85.3932 290.23 85.498 290.859 85.498C291.478 85.498 291.97 85.4342 292.335 85.3066C292.7 85.179 292.982 85.0378 293.183 84.8828C293.392 84.7188 293.561 84.5911 293.689 84.5V80.3984H290.476V77.7871H296.997Z" fill="white"/>
<circle cx="232.5" cy="123.5" r="122.5" stroke="white" stroke-width="2"/>
<path d="M259.777 179H211.216C210.643 179 210.18 178.536 210.18 177.964L210.18 173.5C210.18 172.928 210.643 172.464 211.216 172.464C211.788 172.464 212.252 172.928 212.252 173.5L212.252 176.928H258.741V113.216C258.741 112.643 259.205 112.18 259.777 112.18C260.349 112.18 260.813 112.643 260.813 113.216V177.964C260.813 178.536 260.349 179 259.777 179Z" fill="white"/>
<path d="M254.597 173.82H206.036C205.464 173.82 205 173.357 205 172.784V108.036C205 107.464 205.464 107 206.036 107H254.597C255.169 107 255.633 107.464 255.633 108.036V172.784C255.633 173.357 255.169 173.82 254.597 173.82ZM207.072 171.748H253.561V109.072H207.072V171.748Z" fill="white"/>
<path d="M246.504 134.971H214.129C213.557 134.971 213.094 134.508 213.094 133.935C213.094 133.363 213.557 132.899 214.129 132.899H246.504C247.076 132.899 247.54 133.363 247.54 133.935C247.54 134.508 247.076 134.971 246.504 134.971Z" fill="white"/>
<path d="M246.504 154.396C245.931 154.396 245.468 153.932 245.468 153.36V133.935C245.468 133.363 245.931 132.899 246.504 132.899C247.076 132.899 247.54 133.363 247.54 133.935V153.36C247.54 153.932 247.076 154.396 246.504 154.396Z" fill="white"/>
<path d="M214.129 154.396C213.557 154.396 213.094 153.932 213.094 153.36V133.935C213.094 133.363 213.557 132.899 214.129 132.899C214.702 132.899 215.165 133.363 215.165 133.935V153.36C215.165 153.932 214.702 154.396 214.129 154.396Z" fill="white"/>
<path d="M236.791 154.396C236.219 154.396 235.755 153.932 235.755 153.36V133.935C235.755 133.363 236.219 132.899 236.791 132.899C237.364 132.899 237.827 133.363 237.827 133.935V153.36C237.827 153.932 237.364 154.396 236.791 154.396Z" fill="white"/>
<path d="M225.95 128.496H214.129C213.557 128.496 213.094 128.033 213.094 127.46C213.094 126.888 213.557 126.424 214.129 126.424H225.95C226.522 126.424 226.986 126.888 226.986 127.46C226.986 128.033 226.522 128.496 225.95 128.496Z" fill="white"/>
<path d="M246.504 160.871H236.791C236.219 160.871 235.755 160.407 235.755 159.835C235.755 159.262 236.219 158.799 236.791 158.799H246.504C247.076 158.799 247.54 159.262 247.54 159.835C247.54 160.407 247.076 160.871 246.504 160.871Z" fill="white"/>
<path d="M246.504 141.446H214.129C213.557 141.446 213.094 140.982 213.094 140.41C213.094 139.838 213.557 139.374 214.129 139.374H246.504C247.076 139.374 247.54 139.838 247.54 140.41C247.54 140.982 247.076 141.446 246.504 141.446Z" fill="white"/>
<path d="M246.504 147.921H214.129C213.557 147.921 213.094 147.457 213.094 146.885C213.094 146.312 213.557 145.849 214.129 145.849H246.504C247.076 145.849 247.54 146.312 247.54 146.885C247.54 147.457 247.076 147.921 246.504 147.921Z" fill="white"/>
<path d="M246.504 154.396H214.129C213.557 154.396 213.094 153.932 213.094 153.36C213.094 152.787 213.557 152.324 214.129 152.324H246.504C247.076 152.324 247.54 152.787 247.54 153.36C247.54 153.932 247.076 154.396 246.504 154.396Z" fill="white"/>
<path d="M215.424 118.784H214.129C213.557 118.784 213.094 118.321 213.094 117.748C213.094 117.176 213.557 116.712 214.129 116.712H215.424C215.997 116.712 216.46 117.176 216.46 117.748C216.46 118.321 215.997 118.784 215.424 118.784Z" fill="white"/>
<path d="M220.604 118.784H219.309C218.737 118.784 218.273 118.321 218.273 117.748C218.273 117.176 218.737 116.712 219.309 116.712H220.604C221.177 116.712 221.64 117.176 221.64 117.748C221.64 118.321 221.177 118.784 220.604 118.784Z" fill="white"/>
<path d="M225.784 118.784H224.489C223.917 118.784 223.453 118.321 223.453 117.748C223.453 117.176 223.917 116.712 224.489 116.712H225.784C226.357 116.712 226.82 117.176 226.82 117.748C226.82 118.321 226.357 118.784 225.784 118.784Z" fill="white"/>
<path d="M236.144 128.496H234.849C234.277 128.496 233.813 128.033 233.813 127.46C233.813 126.888 234.277 126.424 234.849 126.424H236.144C236.716 126.424 237.18 126.888 237.18 127.46C237.18 128.033 236.716 128.496 236.144 128.496Z" fill="white"/>
<path d="M241.324 128.496H240.029C239.456 128.496 238.993 128.033 238.993 127.46C238.993 126.888 239.456 126.424 240.029 126.424H241.324C241.896 126.424 242.36 126.888 242.36 127.46C242.36 128.033 241.896 128.496 241.324 128.496Z" fill="white"/>
<path d="M246.504 128.496H245.209C244.636 128.496 244.173 128.033 244.173 127.46C244.173 126.888 244.636 126.424 245.209 126.424H246.504C247.076 126.424 247.54 126.888 247.54 127.46C247.54 128.033 247.076 128.496 246.504 128.496Z" fill="white"/>
<path d="M241.324 165.727H240.029C239.456 165.727 238.993 165.263 238.993 164.691C238.993 164.118 239.456 163.655 240.029 163.655H241.324C241.896 163.655 242.36 164.118 242.36 164.691C242.36 165.263 241.896 165.727 241.324 165.727Z" fill="white"/>
<path d="M246.503 165.727H245.208C244.636 165.727 244.172 165.263 244.172 164.691C244.172 164.118 244.636 163.655 245.208 163.655H246.503C247.076 163.655 247.539 164.118 247.539 164.691C247.539 165.263 247.076 165.727 246.503 165.727Z" fill="white"/>
<rect x="254" y="111" width="6.8" height="2" fill="white"/>
</g>
<path d="M90.0184 280.262C89.384 280.262 88.8702 279.748 88.8702 279.114V273.373C88.8702 272.739 89.384 272.225 90.0184 272.225C90.6527 272.225 91.1665 272.739 91.1665 273.373V279.114C91.1665 279.748 90.6527 280.262 90.0184 280.262Z" fill="white"/>
<path d="M92.8887 277.392H87.1481C86.5138 277.392 86 276.878 86 276.243C86 275.609 86.5138 275.095 87.1481 275.095H92.8887C93.523 275.095 94.0368 275.609 94.0368 276.243C94.0368 276.878 93.523 277.392 92.8887 277.392Z" fill="white"/>
<path d="M155.105 277.647C154.471 277.647 153.957 277.134 153.957 276.499C153.957 275.202 151.457 271.907 149.365 271.907C148.73 271.907 148.217 271.393 148.217 270.759C148.217 270.124 148.73 269.61 149.365 269.61C151.457 269.61 153.957 266.315 153.957 265.018C153.957 264.384 154.471 263.87 155.105 263.87C155.74 263.87 156.253 264.384 156.253 265.018C156.253 266.315 158.753 269.61 160.846 269.61C161.48 269.61 161.994 270.124 161.994 270.759C161.994 271.393 161.48 271.907 160.846 271.907C158.753 271.907 156.253 275.202 156.253 276.499C156.253 277.134 155.74 277.647 155.105 277.647ZM152.594 270.759C153.587 271.453 154.462 272.395 155.105 273.376C155.751 272.398 156.624 271.456 157.617 270.759C156.624 270.064 155.748 269.123 155.105 268.141C154.459 269.12 153.587 270.061 152.594 270.759Z" fill="white"/>
<path d="M124.295 291.58L108.891 273.454V291.58H124.295Z" fill="url(#paint0_linear_623_1474)"/>
<path d="M139.7 291.58V273.454L124.295 291.58H139.7Z" fill="url(#paint1_linear_623_1474)"/>
<path d="M139.7 291.58L124.295 325.119L155.105 291.58H139.7Z" fill="url(#paint2_linear_623_1474)"/>
<path d="M93.4856 291.58L124.295 325.119L108.89 291.58H93.4856Z" fill="url(#paint3_linear_623_1474)"/>
<path d="M155.105 292.728H139.7C139.066 292.728 138.552 292.214 138.552 291.58V273.451C138.552 272.969 138.854 272.538 139.304 272.375C139.755 272.208 140.263 272.343 140.576 272.707L155.981 290.836C156.27 291.178 156.336 291.654 156.147 292.062C155.96 292.467 155.553 292.728 155.105 292.728ZM140.848 290.432H152.622L140.848 276.577V290.432Z" fill="white"/>
<path d="M132.433 274.602H108.89C108.256 274.602 107.742 274.088 107.742 273.454C107.742 272.819 108.256 272.306 108.89 272.306H132.433C133.067 272.306 133.581 272.819 133.581 273.454C133.581 274.088 133.067 274.602 132.433 274.602Z" fill="white"/>
<path d="M124.295 292.728C123.96 292.728 123.638 292.578 123.42 292.323L112.651 279.651C112.24 279.168 112.298 278.442 112.783 278.032C113.265 277.621 113.991 277.679 114.402 278.164L124.295 289.809L138.825 272.71C139.235 272.228 139.959 272.168 140.444 272.578C140.926 272.989 140.986 273.712 140.576 274.197L125.171 292.326C124.953 292.581 124.634 292.731 124.295 292.731V292.728Z" fill="white"/>
<path d="M124.295 326.267C124.017 326.267 123.739 326.167 123.518 325.966C123.05 325.538 123.021 324.812 123.449 324.344L154.258 290.808C154.686 290.34 155.412 290.311 155.88 290.739C156.348 291.166 156.377 291.893 155.949 292.36L125.139 325.897C124.912 326.144 124.602 326.267 124.292 326.267H124.295Z" fill="white"/>
<path d="M108.891 292.728H93.4857C93.0379 292.728 92.6304 292.467 92.4438 292.062C92.2572 291.654 92.3204 291.178 92.6103 290.836L108.015 272.707C108.328 272.34 108.833 272.208 109.287 272.375C109.737 272.541 110.039 272.972 110.039 273.451V291.58C110.039 292.214 109.525 292.728 108.891 292.728ZM95.9685 290.432H107.742V276.577L95.9685 290.432Z" fill="white"/>
<path d="M129.427 315.096C129.267 315.096 129.103 315.061 128.948 314.99C128.371 314.726 128.119 314.043 128.383 313.468L138.655 291.103C138.919 290.526 139.603 290.274 140.177 290.538C140.754 290.802 141.006 291.485 140.742 292.059L130.469 314.424C130.277 314.846 129.861 315.093 129.425 315.093L129.427 315.096Z" fill="white"/>
<path d="M132.918 292.728H114.608C113.974 292.728 113.46 292.214 113.46 291.58C113.46 290.945 113.974 290.432 114.608 290.432H132.918C133.552 290.432 134.066 290.945 134.066 291.58C134.066 292.214 133.552 292.728 132.918 292.728Z" fill="white"/>
<path d="M124.298 326.267C123.985 326.267 123.675 326.141 123.452 325.897L92.6418 292.357C92.3346 292.022 92.2543 291.537 92.4351 291.12C92.6188 290.704 93.0321 290.434 93.4856 290.434H108.89C109.525 290.434 110.039 290.948 110.039 291.582C110.039 292.217 109.525 292.731 108.89 292.731H96.1005L120.211 318.974L110.24 297.266C109.975 296.689 110.228 296.008 110.805 295.744C111.382 295.48 112.062 295.733 112.326 296.31L125.34 324.643C125.576 325.156 125.403 325.765 124.933 326.078C124.737 326.207 124.516 326.27 124.298 326.27V326.267Z" fill="white"/>
<path d="M124.295 259.943C123.661 259.943 123.147 259.429 123.147 258.795V254.148C123.147 253.514 123.661 253 124.295 253C124.93 253 125.444 253.514 125.444 254.148V258.795C125.444 259.429 124.93 259.943 124.295 259.943Z" fill="white"/>
<path d="M116.468 260.985C116.115 260.985 115.768 260.824 115.544 260.517L113.121 257.234C112.745 256.723 112.855 256.005 113.363 255.629C113.873 255.253 114.591 255.362 114.967 255.87L117.39 259.154C117.766 259.665 117.657 260.382 117.148 260.758C116.945 260.911 116.704 260.982 116.468 260.982V260.985Z" fill="white"/>
<path d="M132.126 260.985C131.89 260.985 131.649 260.913 131.445 260.761C130.935 260.385 130.825 259.665 131.204 259.157L133.627 255.873C134.003 255.362 134.723 255.256 135.231 255.632C135.742 256.008 135.851 256.729 135.472 257.237L133.05 260.52C132.826 260.824 132.476 260.988 132.126 260.988V260.985Z" fill="white"/>
<defs>
<linearGradient id="paint0_linear_623_1474" x1="111.683" y1="275.946" x2="123.375" y2="287.539" gradientUnits="userSpaceOnUse">
<stop stop-color="#FFC322"/>
<stop offset="1" stop-color="#F37E5B"/>
</linearGradient>
<linearGradient id="paint1_linear_623_1474" x1="127.087" y1="275.946" x2="138.78" y2="287.539" gradientUnits="userSpaceOnUse">
<stop stop-color="#FFC322"/>
<stop offset="1" stop-color="#F37E5B"/>
</linearGradient>
<linearGradient id="paint2_linear_623_1474" x1="129.88" y1="296.191" x2="151.464" y2="319.323" gradientUnits="userSpaceOnUse">
<stop stop-color="#FFC322"/>
<stop offset="1" stop-color="#F37E5B"/>
</linearGradient>
<linearGradient id="paint3_linear_623_1474" x1="99.0699" y1="296.191" x2="120.654" y2="319.323" gradientUnits="userSpaceOnUse">
<stop stop-color="#FFC322"/>
<stop offset="1" stop-color="#F37E5B"/>
</linearGradient>
</defs>
</svg>
